<?xml version="1.0" encoding="UTF-8"?> <svg xmlns="http://www.w3.org/2000/svg" viewBox="0 0 766.38 211.92" data-guides="{&quot;vertical&quot;:[],&quot;horizontal&quot;:[]}"><defs></defs><path fill="#fffcfa" stroke="none" fill-opacity="1" stroke-width="1" stroke-opacity="1" color="rgb(51, 51, 51)" class="cls-1" id="tSvg17eba278b0e" title="Path 1" d="M81.8274 130.4606C81.8274 141.1477 81.8274 151.8345 81.8274 162.5214C81.8274 163.4407 81.0812 164.1884 80.1638 164.1884C72.6125 164.1884 65.0612 164.1884 57.51 164.1884C56.5927 164.1884 55.8464 163.4407 55.8464 162.5214C55.8464 151.8345 55.8464 141.1477 55.8464 130.4606C55.8464 130.1022 55.7375 129.7596 55.52 129.4792C36.8517 103.8523 18.1833 78.2253 -0.4848 52.5983C-1.2933 51.4924 -0.5004 49.9499 0.8523 49.9499C9.0412 49.9499 17.2298 49.9499 25.4185 49.9499C25.9472 49.9499 26.4448 50.1993 26.7557 50.6356C40.6298 69.7141 54.504 88.7928 68.3783 107.8715C68.6788 107.8715 68.9795 107.8715 69.28 107.8715C83.1543 88.7928 97.0285 69.7141 110.9026 50.6356C111.2136 50.1993 111.7111 49.9499 112.2396 49.9499C120.4234 49.9499 128.6068 49.9499 136.7903 49.9499C138.143 49.9499 138.9361 51.4924 138.1274 52.5983C119.4592 78.2201 100.7911 103.8419 82.1229 129.4636C81.9207 129.744 81.7963 130.0866 81.8274 130.4606Z" style=""></path><path fill="#fffcfa" stroke="none" fill-opacity="1" stroke-width="1" stroke-opacity="1" color="rgb(51, 51, 51)" class="cls-1" id="tSvg1042a99bcf" title="Path 2" d="M269.1211 133.997C269.1211 138.6706 268.0484 143.0481 265.8872 147.1298C263.7415 151.2113 260.2432 154.7477 255.4077 157.7389C250.5722 160.7301 244.2908 163.0979 236.5945 164.8428C228.8824 166.5876 219.4136 167.4599 208.1878 167.4599C201.8441 167.4599 195.6714 167.0239 189.6389 166.1514C183.606 165.2791 177.8688 164.0328 172.4268 162.3969C166.985 160.7612 161.9785 158.7826 157.3764 156.4458C153.396 154.4205 149.882 152.2085 146.8346 149.8093C146.0727 149.2174 146.0105 148.08 146.6635 147.3791C148.9128 144.9228 151.1622 142.4667 153.4114 140.0104C153.9868 139.3872 154.9196 139.3093 155.6038 139.8078C162.1495 144.6995 169.6905 148.4384 178.2576 151.0557C187.3376 153.8286 197.3196 155.2151 208.1878 155.2151C220.2532 155.2151 228.8046 153.6884 233.8112 150.6507C238.8333 147.6128 241.3367 143.4221 241.3367 138.0787C241.3367 133.9502 239.362 130.4606 235.4282 127.6409C231.479 124.8056 224.7933 122.0325 215.3556 119.3218C204.0054 116.0608 192.6552 112.7995 181.305 109.5385C170.0636 106.2825 161.5897 102.1075 155.8524 97.0599C150.1153 92.0125 147.2543 85.5628 147.2543 77.7268C147.2543 73.7075 148.2961 69.8129 150.3951 66.0583C152.4786 62.3038 155.7437 58.9856 160.1594 56.1036C164.575 53.2215 170.2191 50.9314 177.0914 49.2489C183.9637 47.5664 192.2353 46.7252 201.9218 46.7252C207.7679 46.7252 213.5985 47.1615 219.398 48.0338C225.1976 48.9063 230.7483 50.1525 236.0657 51.7883C241.3833 53.424 246.3431 55.4026 250.9455 57.7393C254.9256 59.7645 258.4396 61.9768 261.487 64.3758C262.2491 64.9679 262.3112 66.1051 261.6581 66.8063C259.4088 69.2624 257.1593 71.7186 254.9102 74.1749C254.335 74.798 253.3864 74.8759 252.7024 74.3619C246.2032 69.4857 238.9421 65.7312 230.9504 63.114C222.461 60.3411 212.79 58.9544 201.9218 58.9544C192.9662 58.9544 186.2337 60.3722 181.7558 63.192C177.2779 66.0272 175.0391 69.5013 175.0391 73.6296C175.0391 75.9197 175.4588 77.8983 176.2985 79.5808C177.138 81.2632 178.5373 82.8366 180.512 84.3167C182.4865 85.7966 185.0831 87.1519 188.3016 88.3982C191.5355 89.6444 195.5315 90.9843 200.3049 92.4019C211.5979 95.6631 222.8913 98.9242 234.1843 102.1854C245.0526 105.3478 253.6041 109.4761 259.8079 114.5859C266.0271 119.6958 269.1211 126.1766 269.1211 133.997Z" style=""></path><path fill="#fffcfa" stroke="none" fill-opacity="1" stroke-width="1" stroke-opacity="1" color="rgb(51, 51, 51)" class="cls-1" id="tSvg316069ba5a" title="Path 3" d="M367.5259 49.9656C354.4966 49.9656 341.4672 49.9656 328.4378 49.9656C327.7846 49.9656 327.1938 50.3552 326.914 50.9469C310.3862 87.91 293.8584 124.8731 277.3306 161.8361C276.8333 162.9422 277.6416 164.1884 278.8544 164.1884C286.2346 164.1884 293.615 164.1884 300.9952 164.1884C301.6636 164.1884 302.27 163.7834 302.5188 163.1758C306.1725 154.6025 309.8264 146.0289 313.4804 137.4554C313.7446 136.8478 314.3509 136.4429 315.004 136.4429C336.9685 136.4429 358.9329 136.4429 380.8973 136.4429C381.5659 136.4429 382.1723 136.8478 382.421 137.4554C386.075 146.0289 389.7288 154.6025 393.3827 163.1758C393.6468 163.7834 394.2533 164.1884 394.9063 164.1884C402.2865 164.1884 409.6667 164.1884 417.0469 164.1884C418.2597 164.1884 419.0528 162.9422 418.5707 161.8361C402.0429 124.8731 385.5152 87.91 368.9875 50.9469C368.7231 50.3552 368.1323 49.9656 367.4637 49.9656C367.4844 49.9656 367.5051 49.9656 367.5259 49.9656M322.7781 124.198C321.581 124.198 320.7723 122.9517 321.2544 121.8457C329.8681 102.5021 338.4818 83.1586 347.0955 63.815C347.6915 63.815 348.2876 63.815 348.8835 63.815C357.4973 83.1586 366.111 102.5021 374.7247 121.8457C375.2223 122.9517 374.4137 124.198 373.201 124.198C356.3933 124.198 339.5858 124.198 322.7781 124.198Z" style=""></path><path fill="#fffcfa" stroke="none" fill-opacity="1" stroke-width="1" stroke-opacity="1" color="rgb(51, 51, 51)" class="cls-1" id="tSvg115999574cb" title="Path 4" d="M498.535 49.9499C507.4909 49.9499 515.5293 50.8535 522.6349 52.6451C529.7404 54.4367 535.7419 57.054 540.6552 60.4811C545.5529 63.9084 549.3156 68.0992 551.9432 73.0532C554.571 78.0072 555.8926 83.631 555.8926 89.9405C555.8926 98.649 553.498 105.9865 548.7248 111.9688C544.3246 117.4679 538.152 121.7834 530.2224 124.8991C529.1806 125.3041 528.792 126.5661 529.476 127.454C538.1935 138.8056 546.9108 150.1572 555.6282 161.5089C556.4678 162.5993 555.6903 164.1884 554.3066 164.1884C545.8483 164.1884 537.3901 164.1884 528.9319 164.1884C528.4188 164.1884 527.9368 163.9549 527.6102 163.5341C518.9967 152.3278 510.3828 141.1217 501.7691 129.9155C488.403 129.9155 475.0366 129.9155 461.6703 129.9155C460.753 129.9155 460.0066 130.6632 460.0066 131.5824C460.0066 141.8954 460.0066 152.2085 460.0066 162.5214C460.0066 163.4407 459.2604 164.1884 458.343 164.1884C450.7917 164.1884 443.2405 164.1884 435.6892 164.1884C434.7719 164.1884 434.0256 163.4407 434.0256 162.5214C434.0256 125.5532 434.0256 88.5851 434.0256 51.6169C434.0256 50.6979 434.7719 49.9499 435.6892 49.9499C456.643 49.9499 477.5969 49.9499 498.535 49.9499ZM460.0066 63.8618C460.0066 81.2423 460.0066 98.623 460.0066 116.0035C460.0066 116.9228 460.753 117.6704 461.6703 117.6704C473.9637 117.6704 486.2572 117.6704 498.5506 117.6704C507.9885 117.6704 515.2805 115.4117 520.4115 110.8937C525.5425 106.3759 528.1234 99.3967 528.1234 89.9248C528.1234 80.4531 525.558 73.4737 520.4115 68.956C515.2805 64.4381 507.9885 62.1791 498.5506 62.1791C486.2572 62.1791 473.9637 62.1791 461.6703 62.1791C460.753 62.1791 460.0066 62.9271 460.0066 63.8618Z" style=""></path><path fill="#fffcfa" stroke="none" fill-opacity="1" stroke-width="1" stroke-opacity="1" color="rgb(51, 51, 51)" class="cls-1" id="tSvg8132ed3532" title="Path 5" d="M601.7132 164.1728C594.1619 164.1728 586.6106 164.1728 579.0595 164.1728C578.1419 164.1728 577.3958 163.4251 577.3958 162.5059C577.3958 125.5431 577.3958 88.58 577.3958 51.6169C577.3958 50.6979 578.1419 49.9499 579.0595 49.9499C586.6106 49.9499 594.1619 49.9499 601.7132 49.9499C602.6304 49.9499 603.3769 50.6979 603.3769 51.6169C603.3769 88.58 603.3769 125.5431 603.3769 162.5059C603.3769 163.4251 602.6304 164.1728 601.7132 164.1728Z" style=""></path><path fill="#fffcfa" stroke="none" fill-opacity="1" stroke-width="1" stroke-opacity="1" color="rgb(51, 51, 51)" class="cls-1" id="tSvg17b0a347393" title="Path 6" d="M710.4572 50.9469C726.985 87.91 743.5128 124.8731 760.0407 161.8361C760.538 162.9422 759.7295 164.1884 758.5169 164.1884C751.1367 164.1884 743.7563 164.1884 736.3761 164.1884C735.7077 164.1884 735.1012 163.7834 734.8525 163.1758C731.1986 154.6025 727.5448 146.0289 723.8909 137.4554C723.6265 136.8478 723.0203 136.4429 722.3673 136.4429C700.3976 136.4429 678.4279 136.4429 656.4584 136.4429C655.7897 136.4429 655.1834 136.8478 654.9346 137.4554C651.2808 146.0289 647.6269 154.6025 643.9731 163.1758C643.7088 163.7834 643.1024 164.1884 642.4494 164.1884C635.0692 164.1884 627.689 164.1884 620.3088 164.1884C619.096 164.1884 618.303 162.9422 618.785 161.8361C635.3179 124.8731 651.8509 87.91 668.3838 50.9469C668.6482 50.3552 669.239 49.9656 669.9074 49.9656C682.9318 49.9656 695.9561 49.9656 708.9801 49.9656C709.6333 49.9656 710.224 50.3552 710.4572 50.9469ZM664.1859 124.2135C680.9987 124.2135 697.8114 124.2135 714.6243 124.2135C715.8215 124.2135 716.63 122.9673 716.1479 121.8612C707.5342 102.5177 698.9204 83.1741 690.3069 63.8305C689.7108 63.8305 689.1147 63.8305 688.5188 63.8305C679.905 83.1741 671.2915 102.5177 662.6776 121.8612C662.1801 122.9673 662.9886 124.2135 664.1859 124.2135Z" style=""></path><path fill="#fffcfa" stroke="none" fill-opacity="1" stroke-width="1" stroke-opacity="1" color="rgb(51, 51, 51)" class="cls-1" x="223.08" y="25.89" width="21.42" height="7.87" rx=".54" ry=".54" id="tSvg18284a76d66" title="Rectangle 1" d="M331.3297 26.3017C331.3297 25.8371 331.7057 25.4603 332.1694 25.4603C342.711 25.4603 353.2525 25.4603 363.7942 25.4603C364.2581 25.4603 364.6338 25.8371 364.6338 26.3017C364.6338 29.8276 364.6338 33.3536 364.6338 36.8795C364.6338 37.3441 364.2581 37.7207 363.7942 37.7209C353.2525 37.7209 342.711 37.7209 332.1694 37.7209C331.7057 37.7207 331.3297 37.3441 331.3297 36.8795C331.3297 33.3536 331.3297 29.8276 331.3297 26.3017" style="transform-origin: -11257.8px -9827.26px;"></path></svg> 