<?xml version="1.0" encoding="UTF-8"?>
<svg xmlns="http://www.w3.org/2000/svg" viewBox="0 0 400 80">
  <!-- Footer логотип "ADAM MAKS DEVELOPER" -->
  <!-- ADAM -->
  <path fill="#fffcfa" d="M20,70 L30,20 L40,70 M25,50 L35,50" stroke="#fffcfa" stroke-width="3"/>
  <path fill="#fffcfa" d="M50,70 L50,20 L65,20 Q75,20 75,45 Q75,70 65,70 Z" stroke="#fffcfa" stroke-width="2.5"/>
  <path fill="#fffcfa" d="M85,70 L95,20 L105,70 M90,50 L100,50" stroke="#fffcfa" stroke-width="3"/>
  <path fill="#fffcfa" d="M115,70 L115,20 L125,45 L135,20 L135,70" stroke="#fffcfa" stroke-width="3" fill="none"/>
  
  <!-- MAKS -->
  <path fill="#fffcfa" d="M155,70 L155,20 L165,45 L175,20 L175,70" stroke="#fffcfa" stroke-width="2.5" fill="none"/>
  <path fill="#fffcfa" d="M185,70 L195,20 L205,70 M190,50 L200,50" stroke="#fffcfa" stroke-width="2.5"/>
  <path fill="#fffcfa" d="M215,70 L215,20 L225,20 M215,45 L230,45 M215,70 L230,70" stroke="#fffcfa" stroke-width="2.5" fill="none"/>
  <path fill="#fffcfa" d="M240,70 L240,20 L255,30 L240,45 L255,55" stroke="#fffcfa" stroke-width="2.5" fill="none"/>
  
  <!-- DEVELOPER (простая линия с точками) -->
  <line x1="280" y1="45" x2="380" y2="45" stroke="#fffcfa" stroke-width="2"/>
  <text fill="#fffcfa" font-family="sans-serif" font-size="12" x="285" y="50" style="font-weight:400">DEVELOPER</text>
</svg>
