<?xml version="1.0" encoding="UTF-8"?> <svg xmlns="http://www.w3.org/2000/svg" id="_Слой_1" data-name=" Слой 1" viewBox="0 0 508.38 156.99"><defs><style> .cls-1 { fill: #fffcfa; } </style></defs><g><path class="cls-1" d="m82.52,149.74c-2.7,0-5.09-.58-7.17-1.74s-3.72-2.78-4.9-4.86-1.78-4.47-1.78-7.17.59-5.13,1.78-7.21c1.18-2.08,2.82-3.7,4.89-4.86,2.08-1.16,4.45-1.74,7.12-1.74,1.62,0,3.14.22,4.54.65,1.41.44,2.67,1.06,3.79,1.86s2.05,1.75,2.79,2.85,1.25,2.32,1.52,3.64h-3.8c-.25-.9-.63-1.71-1.16-2.43-.53-.73-1.18-1.35-1.96-1.89-.78-.53-1.64-.94-2.6-1.22s-1.99-.42-3.1-.42c-1.97,0-3.72.45-5.25,1.34s-2.72,2.14-3.58,3.75-1.29,3.5-1.29,5.67.43,4.03,1.29,5.64c.86,1.6,2.05,2.85,3.59,3.74,1.53.89,3.29,1.34,5.28,1.34,1.7,0,3.24-.33,4.61-1,1.38-.67,2.46-1.59,3.27-2.78.8-1.19,1.21-2.58,1.21-4.16l1.18.07h-9.13v-2.89h11.62v2.91c0,2.11-.56,3.98-1.68,5.62s-2.65,2.93-4.57,3.87-4.09,1.41-6.52,1.41h.01Z"></path><path class="cls-1" d="m99.31,149.32v-26.75h11.11c2.18,0,4.04.34,5.58,1.01s2.72,1.62,3.53,2.84,1.23,2.66,1.23,4.31-.43,3.07-1.29,4.29-2.08,2.17-3.66,2.84-3.45,1.01-5.62,1.01h-8.82v-2.91h8.95c1.44,0,2.67-.21,3.68-.64s1.77-1.03,2.3-1.81c.53-.78.79-1.71.79-2.77s-.26-2.02-.8-2.8-1.3-1.38-2.31-1.8c-1.01-.43-2.24-.64-3.7-.64h-7.25v23.84h-3.72v-.02Zm17.67,0l-7.35-12.03h4.21l7.48,12.03h-4.34Z"></path><path class="cls-1" d="m121.99,149.32l11.19-26.75h4.25l11.13,26.75h-3.96l-6.41-16.07c-.41-1.04-.88-2.26-1.4-3.65-.53-1.4-1.19-3.21-1.99-5.45h1c-.79,2.25-1.45,4.07-1.97,5.47s-1,2.61-1.42,3.64l-6.52,16.07h-3.9,0Zm5.74-7.51v-2.89h15.08v2.89h-15.08Z"></path><path class="cls-1" d="m151.03,149.32v-26.75h10.81c2.18,0,4.04.34,5.58,1.02,1.54.68,2.72,1.64,3.53,2.86.82,1.23,1.23,2.67,1.23,4.32s-.42,3.09-1.26,4.32c-.84,1.23-2.03,2.18-3.6,2.87-1.56.69-3.43,1.03-5.61,1.03h-8.58v-2.89h8.56c1.46,0,2.69-.22,3.7-.66s1.78-1.07,2.31-1.87c.53-.8.8-1.74.8-2.8s-.27-2.01-.8-2.8c-.53-.79-1.3-1.4-2.31-1.84-1.01-.44-2.24-.65-3.7-.65h-6.95v23.84h-3.72.01Z"></path><path class="cls-1" d="m175.62,149.32v-26.75h3.72v11.6h16.18v-11.6h3.72v26.75h-3.72v-12.25h-16.18v12.25h-3.72Z"></path><path class="cls-1" d="m208.02,122.57v26.75h-3.72v-26.75s3.72,0,3.72,0Z"></path><path class="cls-1" d="m225.87,149.74c-2.76,0-5.19-.58-7.28-1.74s-3.73-2.78-4.9-4.85c-1.18-2.07-1.77-4.46-1.77-7.18s.59-5.13,1.76-7.21,2.8-3.7,4.9-4.86c2.1-1.16,4.53-1.74,7.29-1.74,1.58,0,3.06.21,4.45.62s2.64,1.01,3.74,1.8c1.11.79,2.02,1.74,2.76,2.85.74,1.11,1.25,2.36,1.53,3.74h-3.78c-.25-.96-.63-1.81-1.17-2.55-.53-.74-1.17-1.37-1.93-1.88-.75-.51-1.61-.89-2.56-1.15s-1.97-.39-3.04-.39c-2.07,0-3.87.45-5.4,1.34s-2.72,2.14-3.58,3.75c-.85,1.61-1.28,3.5-1.28,5.67s.43,4.03,1.28,5.64c.85,1.6,2.04,2.85,3.58,3.74,1.53.89,3.33,1.34,5.4,1.34,1.08,0,2.09-.13,3.03-.38.95-.26,1.8-.64,2.56-1.14s1.41-1.13,1.94-1.87c.53-.74.92-1.59,1.17-2.55h3.78c-.27,1.39-.78,2.64-1.51,3.74-.74,1.11-1.66,2.05-2.77,2.84-1.11.78-2.36,1.38-3.75,1.8-1.39.41-2.87.62-4.45.62h0Z"></path><path class="cls-1" d="m255.35,122.57v26.75h-3.72v-26.75s3.72,0,3.72,0Zm5.7,26.75h-7.31v-2.91h7.07c2.51,0,4.58-.42,6.23-1.27,1.65-.84,2.88-2.05,3.69-3.63.81-1.57,1.21-3.45,1.21-5.63s-.4-4.01-1.19-5.57c-.8-1.56-1.99-2.75-3.58-3.59-1.6-.84-3.58-1.26-5.95-1.26h-7.64v-2.91h7.88c2.96,0,5.49.53,7.61,1.6s3.74,2.59,4.87,4.59c1.13,1.99,1.69,4.37,1.69,7.14s-.57,5.19-1.72,7.19c-1.14,2.01-2.8,3.55-4.96,4.62-2.17,1.08-4.8,1.62-7.91,1.62h.01Z"></path><path class="cls-1" d="m279.53,149.32v-26.75h19.53v2.91h-15.81v8.75h14.67v2.89h-14.67v9.3h15.85v2.91h-19.57Z"></path><path class="cls-1" d="m312.71,149.75c-2.32,0-4.32-.35-6.01-1.06-1.69-.7-3-1.71-3.94-3.02-.94-1.3-1.42-2.84-1.45-4.61h3.82c.03,1.21.35,2.24.97,3.1s1.49,1.51,2.62,1.96c1.13.45,2.46.67,3.98.67s2.73-.19,3.83-.57c1.1-.38,1.95-.93,2.57-1.64s.93-1.55.93-2.51c0-.77-.22-1.42-.64-1.97-.43-.54-1.09-1.02-1.97-1.42-.89-.4-2.02-.75-3.41-1.05l-3.47-.77c-2.96-.66-5.12-1.55-6.5-2.68-1.38-1.13-2.06-2.6-2.06-4.41,0-1.53.44-2.87,1.32-4.01s2.11-2.03,3.69-2.66c1.58-.63,3.41-.94,5.49-.94s3.9.33,5.46,1c1.55.67,2.77,1.6,3.65,2.8.88,1.2,1.34,2.62,1.4,4.26h-3.68c-.12-1.59-.81-2.84-2.06-3.73s-2.88-1.35-4.88-1.35c-1.31,0-2.47.19-3.47.57-1.01.38-1.8.9-2.37,1.58s-.86,1.45-.86,2.33c0,.75.23,1.4.69,1.92.46.53,1.14.98,2.03,1.36.89.38,1.99.71,3.3,1l3.37.75c1.33.3,2.53.66,3.6,1.09s1.98.93,2.74,1.53c.75.59,1.33,1.28,1.74,2.06.4.78.6,1.67.6,2.68,0,1.52-.45,2.87-1.36,4.04-.91,1.17-2.19,2.09-3.84,2.75-1.66.66-3.6.99-5.83.99v-.04Z"></path><path class="cls-1" d="m331.13,122.57v26.75h-3.72v-26.75s3.72,0,3.72,0Z"></path><path class="cls-1" d="m348.87,149.74c-2.7,0-5.09-.58-7.17-1.74s-3.72-2.78-4.9-4.86-1.78-4.47-1.78-7.17.59-5.13,1.78-7.21c1.18-2.08,2.82-3.7,4.89-4.86,2.08-1.16,4.45-1.74,7.12-1.74,1.62,0,3.14.22,4.54.65,1.41.44,2.67,1.06,3.79,1.86s2.05,1.75,2.79,2.85c.74,1.1,1.25,2.32,1.52,3.64h-3.8c-.25-.9-.63-1.71-1.16-2.43-.53-.73-1.18-1.35-1.96-1.89-.78-.53-1.64-.94-2.6-1.22s-1.99-.42-3.1-.42c-1.97,0-3.72.45-5.25,1.34s-2.72,2.14-3.58,3.75-1.29,3.5-1.29,5.67.43,4.03,1.29,5.64c.86,1.6,2.05,2.85,3.59,3.74,1.53.89,3.29,1.34,5.28,1.34,1.7,0,3.24-.33,4.61-1,1.38-.67,2.46-1.59,3.27-2.78.8-1.19,1.21-2.58,1.21-4.16l1.18.07h-9.13v-2.89h11.62v2.91c0,2.11-.56,3.98-1.68,5.62s-2.65,2.93-4.57,3.87-4.09,1.41-6.52,1.41h.01Z"></path><path class="cls-1" d="m365.65,149.32v-26.75h4.31l12.5,17.34c.29.4.64.91,1.07,1.54.43.63.89,1.32,1.38,2.06.49.75.96,1.5,1.41,2.25l-.39.5c-.05-.72-.1-1.51-.14-2.38-.04-.87-.07-1.69-.08-2.46-.01-.77-.02-1.37-.02-1.79v-17.07h3.74v26.75h-4.35l-11.13-15.42c-.34-.48-.76-1.09-1.28-1.82-.51-.74-1.1-1.6-1.78-2.6s-1.43-2.13-2.28-3.38l.49-.67c.07,1.38.12,2.62.16,3.72s.07,2.05.09,2.85.03,1.42.03,1.88v15.46h-3.74.01Z"></path><path class="cls-1" d="m394.51,149.32v-26.75h19.53v2.91h-15.81v8.75h14.67v2.89h-14.67v9.3h15.85v2.91h-19.57Z"></path><path class="cls-1" d="m417.7,149.32v-26.75h11.11c2.18,0,4.04.34,5.58,1.01s2.72,1.62,3.53,2.84,1.23,2.66,1.23,4.31-.43,3.07-1.29,4.29-2.08,2.17-3.66,2.84c-1.58.67-3.45,1.01-5.62,1.01h-8.82v-2.91h8.95c1.44,0,2.67-.21,3.68-.64,1.01-.43,1.77-1.03,2.3-1.81s.79-1.71.79-2.77-.26-2.02-.8-2.8-1.3-1.38-2.31-1.8c-1.01-.43-2.24-.64-3.7-.64h-7.25v23.84h-3.72v-.02Zm17.67,0l-7.35-12.03h4.21l7.48,12.03h-4.34Z"></path></g><g><path class="cls-1" d="m61.07,75.18v20.74c0,.6-.48,1.08-1.08,1.08h-14.69c-.6,0-1.08-.48-1.08-1.08v-20.74c0-.23-.07-.45-.21-.64L7.7,24.81c-.52-.71-.01-1.71.87-1.71h15.92c.34,0,.67.16.87.44l26.98,37.04h.58l26.98-37.04c.2-.28.53-.44.87-.44h15.92c.88,0,1.39,1,.87,1.71l-36.31,49.74c-.13.18-.21.41-.21.64h.03Z"></path><path class="cls-1" d="m182.5,77.47c0,3.03-.7,5.86-2.09,8.5s-3.66,4.93-6.8,6.86c-3.14,1.94-7.2,3.47-12.2,4.59-5,1.13-11.14,1.69-18.42,1.69-4.11,0-8.12-.28-12.03-.84-3.91-.57-7.63-1.37-11.16-2.43s-6.78-2.34-9.76-3.85c-2.58-1.31-4.86-2.74-6.84-4.29-.49-.39-.53-1.12-.11-1.57l4.38-4.77c.37-.41.98-.46,1.42-.13,4.24,3.16,9.14,5.59,14.69,7.28,5.89,1.79,12.36,2.69,19.41,2.69,7.82,0,13.36-.98,16.62-2.96,3.25-1.97,4.88-4.68,4.88-8.13,0-2.67-1.28-4.93-3.83-6.76-2.56-1.83-6.9-3.62-13.02-5.39l-22.08-6.33c-7.28-2.11-12.78-4.8-16.5-8.08-3.72-3.27-5.58-7.44-5.58-12.51,0-2.6.68-5.12,2.03-7.55s3.47-4.57,6.33-6.44c2.86-1.86,6.52-3.34,10.98-4.43s9.82-1.64,16.09-1.64c3.79,0,7.57.28,11.33.85,3.76.56,7.36,1.37,10.81,2.43s6.66,2.34,9.64,3.85c2.58,1.31,4.86,2.74,6.84,4.29.49.39.53,1.12.11,1.58l-4.37,4.77c-.37.41-.99.46-1.43.13-4.22-3.16-8.92-5.59-14.1-7.28-5.5-1.79-11.78-2.69-18.82-2.69-5.81,0-10.17.92-13.07,2.75-2.9,1.83-4.36,4.08-4.36,6.76,0,1.48.27,2.76.81,3.85s1.45,2.11,2.73,3.06,2.96,1.83,5.05,2.64c2.09.81,4.69,1.67,7.79,2.59l21.96,6.33c7.05,2.04,12.59,4.72,16.62,8.03s6.04,7.5,6.04,12.56h.01Z"></path><path class="cls-1" d="m246.29,23.1h-25.34c-.42,0-.81.25-.98.64l-32.14,71.75c-.32.71.2,1.52.98,1.52h14.36c.43,0,.82-.26.99-.65l7.11-16.64c.17-.4.56-.65.99-.65h42.72c.43,0,.82.26.99.65l7.11,16.64c.17.4.56.65.99.65h14.36c.78,0,1.3-.81.98-1.52l-32.14-71.75c-.17-.39-.56-.64-.98-.64h0Zm-29.02,48.03c-.78,0-1.3-.8-.98-1.52l16.75-37.55h1.16l16.75,37.55c.32.71-.2,1.52-.98,1.52h-32.7Z"></path><path class="cls-1" d="m331.23,23.09c5.81,0,11.02.58,15.63,1.74s8.5,2.85,11.68,5.07,5.61,4.93,7.32,8.13c1.7,3.2,2.56,6.85,2.56,10.93,0,5.63-1.55,10.38-4.65,14.25-2.85,3.56-6.85,6.35-12,8.36-.67.26-.92,1.08-.48,1.65l16.95,22.03c.55.71.04,1.74-.85,1.74h-16.45c-.33,0-.65-.16-.85-.42l-16.76-21.75h-26c-.6,0-1.08.48-1.08,1.08v20.02c0,.6-.48,1.08-1.08,1.08h-14.69c-.6,0-1.08-.48-1.08-1.08V24.17c0-.6.48-1.08,1.08-1.08h40.75Zm-24.98,9v33.74c0,.6.48,1.08,1.08,1.08h23.91c6.12,0,10.84-1.46,14.18-4.38,3.33-2.92,5-7.44,5-13.57s-1.67-10.65-5-13.57-8.06-4.38-14.18-4.38h-23.91c-.6,0-1.08.48-1.08,1.08Z"></path><path class="cls-1" d="m398.13,97h-14.69c-.6,0-1.08-.48-1.08-1.08V24.17c0-.6.48-1.08,1.08-1.08h14.69c.6,0,1.08.48,1.08,1.08v71.75c0,.6-.48,1.08-1.08,1.08Z"></path><path class="cls-1" d="m468.64,23.73l32.15,71.75c.32.71-.2,1.52-.98,1.52h-14.36c-.43,0-.82-.26-.99-.65l-7.11-16.64c-.17-.4-.56-.65-.99-.65h-42.73c-.43,0-.82.26-.99.65l-7.11,16.64c-.17.4-.56.65-.99.65h-14.36c-.78,0-1.3-.81-.98-1.52l32.15-71.75c.17-.39.56-.64.98-.64h25.33c.42,0,.81.25.98.64h0Zm-30,47.4h32.7c.78,0,1.3-.8.98-1.52l-16.75-37.55h-1.16l-16.75,37.55c-.32.71.2,1.52.98,1.52h0Z"></path><rect class="cls-1" x="222.83" y="7.24" width="21.59" height="7.93" rx=".54" ry=".54"></rect></g></svg> 