<?xml version="1.0" encoding="UTF-8"?> <svg xmlns="http://www.w3.org/2000/svg" width="913" height="260" viewBox="0 0 913 260" fill="none"><path d="M68.9104 57.4902C77.2204 57.4902 84.6204 59.4002 91.1204 63.2202C97.6204 67.0402 103.08 72.2002 107.5 78.7002C111.92 85.2002 115.31 92.8402 117.65 101.62C119.99 110.4 121.17 119.81 121.17 129.86C121.17 139.91 120 149.33 117.65 158.1C115.3 166.88 111.92 174.52 107.5 181.02C103.08 187.52 97.6204 192.68 91.1204 196.5C84.6204 200.32 77.2204 202.23 68.9104 202.23C60.6004 202.23 53.2004 200.32 46.7004 196.5C40.2004 192.68 34.7404 187.52 30.3204 181.02C25.9004 174.52 22.5104 166.88 20.1704 158.1C17.8204 149.32 16.6504 139.91 16.6504 129.86C16.6504 119.81 17.8204 110.4 20.1704 101.62C22.5104 92.8402 25.9004 85.2102 30.3204 78.7002C34.7404 72.2002 40.2004 67.0402 46.7004 63.2202C53.2004 59.4002 60.6004 57.4902 68.9104 57.4902ZM68.9104 59.5002C60.8704 59.5002 54.0704 61.3402 48.5104 65.0302C42.9504 68.7202 38.4204 73.7402 34.9404 80.1102C31.4504 86.4802 28.9404 93.9502 27.4004 102.52C25.8604 111.1 25.0904 120.21 25.0904 129.86C25.0904 139.51 25.8604 148.62 27.4004 157.2C28.9404 165.78 31.4504 173.25 34.9404 179.61C38.4204 185.98 42.9504 191 48.5104 194.69C54.0704 198.38 60.8704 200.22 68.9104 200.22C76.9504 200.22 83.7504 198.38 89.3104 194.69C94.8704 191.01 99.3904 185.98 102.88 179.61C106.36 173.25 108.88 165.77 110.42 157.2C111.96 148.63 112.73 139.51 112.73 129.86C112.73 120.21 111.96 111.1 110.42 102.52C108.88 93.9502 106.37 86.4702 102.88 80.1102C99.3904 73.7502 94.8704 68.7202 89.3104 65.0302C83.7504 61.3502 76.9504 59.5002 68.9104 59.5002Z" fill="black"></path><path d="M235.35 143.33C235.35 151.77 234.38 159.58 232.44 166.75C230.5 173.92 227.62 180.12 223.8 185.34C219.98 190.57 215.22 194.69 209.53 197.7C203.83 200.72 197.3 202.22 189.93 202.22C181.62 202.22 174.22 200.31 167.72 196.49C161.22 192.67 155.76 187.51 151.34 181.01C146.92 174.51 143.53 166.87 141.19 158.09C138.84 149.31 137.67 139.9 137.67 129.85C137.67 119.8 138.84 110.39 141.19 101.61C143.53 92.8305 146.92 85.2005 151.34 78.6905C155.76 72.1905 161.22 67.0305 167.72 63.2105C174.22 59.3905 181.62 57.4805 189.93 57.4805C199.71 57.4805 207.95 60.0305 214.65 65.1205C221.35 70.2105 226.44 77.1105 229.93 85.8205C230.87 85.1505 231.67 84.2105 232.34 83.0105C233.01 81.8005 233.35 80.4005 233.35 78.7905V59.4905H235.36V116.38H233.35C233.35 108.34 232.41 100.84 230.54 93.8705C228.66 86.9005 225.88 80.8705 222.2 75.7805C218.51 70.6905 213.99 66.7005 208.63 63.8205C203.27 60.9405 197.04 59.5005 189.94 59.5005C181.9 59.5005 175.1 61.3405 169.54 65.0305C163.98 68.7205 159.45 73.7405 155.97 80.1105C152.48 86.4805 149.97 93.9505 148.43 102.52C146.89 111.1 146.12 120.21 146.12 129.86C146.12 139.51 146.89 148.62 148.43 157.2C149.97 165.78 152.48 173.25 155.97 179.61C159.45 185.98 163.98 191 169.54 194.69C175.1 198.38 181.9 200.22 189.94 200.22C197.04 200.22 203.27 198.78 208.63 195.9C213.99 193.02 218.51 189.03 222.2 183.94C225.88 178.85 228.66 172.82 230.54 165.85C232.42 158.88 233.35 151.38 233.35 143.34H235.36L235.35 143.33Z" fill="black"></path><path d="M252.641 200.22V198.21H272.741V61.51H252.641V59.5H339.081V116.39H337.071V96.29C337.071 87.58 336.501 80.88 335.361 76.19C334.221 71.5 332.781 68.05 331.041 65.84C329.301 63.63 327.351 62.36 325.211 62.02C323.061 61.69 320.991 61.52 318.981 61.52H280.791V128.86H318.981V130.87H280.791V198.21H318.981C320.991 198.21 323.071 198.04 325.211 197.71C327.351 197.38 329.301 196.1 331.041 193.89C332.781 191.68 334.221 188.23 335.361 183.54C336.501 178.85 337.071 172.15 337.071 163.44V143.34H339.081V200.23H252.641V200.22Z" fill="black"></path><path d="M430.93 200.22V198.21H451.03L439.37 160.82H383.49L371.83 198.21H391.93V200.22H349.52V198.21H369.62L413.44 57.5H415.65L459.47 198.21H479.57V200.22H430.92H430.93ZM411.43 70.77L384.09 158.81H438.77L411.43 70.77Z" fill="black"></path><path d="M576.87 200.22L509.93 63.53V198.21H530.03V200.22H487.82V198.21H507.92V61.51H487.82V59.5H516.97L576.87 182.12V61.51H556.77V59.5H598.98V61.51H578.88V200.21H576.87V200.22Z" fill="black"></path><path d="M608.02 200.22V198.21H628.12V61.51H608.02V59.5H656.26V61.51H636.159V198.2H656.26V200.21H608.02V200.22Z" fill="black"></path><path d="M667.52 200.22V198.21H687.62V61.51H667.52V59.5H715.76C724.07 59.5 731.67 61.28 738.58 64.83C745.48 68.38 751.41 73.31 756.37 79.6C761.33 85.9 765.18 93.34 767.93 101.91C770.68 110.49 772.049 119.8 772.049 129.85C772.049 139.9 770.67 149.22 767.93 157.79C765.18 166.37 761.33 173.81 756.37 180.1C751.41 186.4 745.48 191.33 738.58 194.87C731.68 198.42 724.07 200.2 715.76 200.2H667.52V200.22ZM715.76 198.21C723.8 198.21 730.8 196.47 736.77 192.98C742.73 189.5 747.73 184.71 751.75 178.61C755.77 172.51 758.75 165.28 760.7 156.9C762.64 148.53 763.609 139.51 763.609 129.86C763.609 120.21 762.64 111.2 760.7 102.82C758.76 94.45 755.77 87.21 751.75 81.11C747.73 75.01 742.74 70.22 736.77 66.74C730.81 63.26 723.8 61.51 715.76 61.51H695.659V198.2H715.76V198.21Z" fill="black"></path><path d="M847.43 200.22V198.21H867.53L855.87 160.82H799.99L788.33 198.21H808.43V200.22H766.02V198.21H786.12L829.94 57.5H832.15L875.969 198.21H896.07V200.22H847.419H847.43ZM827.93 70.77L800.59 158.81H855.27L827.93 70.77Z" fill="black"></path></svg> 