<?xml version="1.0" encoding="UTF-8"?> <svg xmlns="http://www.w3.org/2000/svg" id="_Слой_1" data-name="Слой 1" viewBox="0 0 1039.4 313.23"><defs><style> .cls-1 { fill: #222323; } </style></defs><path class="cls-1" d="m195.99,91.58H24.31v174.52h31.49V123.78h108.26l31.93-32.19Z"></path><path class="cls-1" d="m368.1,171.46c0,.81-.32,1.45-.95,1.94-.65.48-1.35.73-2.14.73h-102.53c-.81,0-1.47-.24-2.04-.73-.54-.48-.83-1.13-.83-1.94v-44.54c0-.81.28-1.49.83-2.06.56-.57,1.23-.85,2.04-.85h102.53c.79,0,1.49.28,2.14.85.63.56.95,1.25.95,2.06v44.54Zm31.71,1.21v-46.96l-33.36-33.65h-138.3v174.04h31.47v-59.55l106.83-.24,33.36-33.65Z"></path><path class="cls-1" d="m635.78,266.11V91.83h31.47v70.92h112.54v-70.92h31.47v174.28h-31.47v-70.92h-112.54v70.92h-31.47Z"></path><path class="cls-1" d="m1015.08,266.11V91.83h-34.57l-100.92,121.92c-1.51,1.82-4.47.76-4.47-1.61v-120.31h-31.71v174.28h34.57l101.15-122.16c1.51-1.82,4.47-.76,4.47,1.61v120.55h31.47Z"></path><polygon class="cls-1" points="514.68 92.07 514.35 92.1 514.03 92.13 513.38 92.2 513.05 92.24 512.4 92.31 512.08 92.36 511.75 92.39 511.43 92.43 511.1 92.46 510.45 92.53 510.12 92.56 509.47 92.63 509.15 92.67 508.82 92.72 508.5 92.75 508.17 92.79 507.83 92.82 507.5 92.85 507.18 92.89 506.53 92.96 506.2 92.99 505.55 93.06 505.22 93.11 504.9 93.14 504.57 93.18 504.25 93.21 503.6 93.28 503.27 93.32 502.62 93.38 502.3 93.42 501.97 93.45 501.64 93.51 501.32 93.54 500.67 93.61 500.34 93.64 499.69 93.71 499.37 93.74 498.71 93.81 498.39 93.86 497.74 93.93 497.41 93.97 496.76 94.04 496.44 94.07 495.79 94.14 495.46 94.17 495.13 94.21 494.81 94.26 493.83 94.36 493.51 94.4 492.86 94.46 492.53 94.5 491.88 94.57 491.55 94.62 491.23 94.65 490.9 94.69 490.58 94.72 490.54 94.72 490.25 94.76 489.93 94.79 489.6 94.82 488.95 94.89 488.62 94.93 488.28 94.96 487.96 95.01 487.31 95.08 486.98 95.12 486 95.22 485.68 95.25 485.03 95.32 484.7 95.37 484.38 95.41 484.05 95.44 483.4 95.51 483.33 95.51 483.07 95.54 482.1 95.65 481.77 95.68 481.45 95.71 481.12 95.77 480.47 95.83 480.15 95.87 479.49 95.94 479.17 95.97 478.19 96.07 477.87 96.13 477.54 96.16 477.22 96.19 476.56 96.26 476.24 96.3 475.59 96.37 475.26 96.4 474.61 96.47 474.29 96.52 473.64 96.59 473.31 96.62 472.98 96.66 472.95 96.97 472.9 97.29 472.86 97.6 472.83 97.92 472.8 98.23 472.76 98.54 472.73 98.87 472.68 99.17 472.64 99.5 472.57 100.12 472.54 100.44 472.5 100.75 472.45 101.08 472.38 101.69 472.35 102.02 472.32 102.33 472.28 102.65 472.23 102.96 472.2 103.27 472.16 103.59 472.13 103.9 472.09 104.23 472.06 104.54 472.01 104.85 471.97 105.17 471.94 105.48 471.91 105.8 471.84 106.42 471.79 106.75 471.75 107.06 471.72 107.38 471.68 107.69 471.65 108.01 471.61 108.32 471.56 108.63 471.53 108.96 471.49 109.26 471.46 109.59 471.43 109.9 471.39 110.21 471.34 110.53 471.31 110.84 471.27 111.17 471.2 111.78 471.17 112.11 471.12 112.42 471.08 112.74 471.05 113.05 471.01 113.36 470.98 113.68 470.95 113.99 470.89 114.32 470.86 114.63 470.83 114.94 470.79 115.26 470.76 115.57 470.72 115.89 470.67 116.2 470.64 116.51 470.6 116.84 470.57 117.14 470.53 117.47 470.5 117.78 470.47 118.09 470.41 118.41 470.38 118.72 470.35 119.05 470.31 119.35 470.28 119.66 470.24 119.99 470.19 120.3 470.16 120.62 470.12 120.93 470.09 121.24 470.06 121.56 470.02 121.87 469.97 122.2 469.9 122.82 469.87 123.14 469.85 123.24 469.83 123.45 469.8 123.77 469.75 124.08 469.71 124.41 469.68 124.72 469.64 125.03 469.61 125.35 469.58 125.66 469.52 125.98 469.49 126.29 469.46 126.6 469.42 126.93 469.39 127.24 469.35 127.56 469.3 127.87 469.27 128.18 469.23 128.5 469.2 128.81 469.16 129.14 469.13 129.45 469.08 129.75 469.04 130.08 469.01 130.39 468.98 130.71 468.94 131.02 468.91 131.33 468.86 131.65 468.82 131.96 468.79 132.29 468.75 132.6 468.72 132.91 468.68 133.23 468.63 133.54 468.6 133.86 468.53 134.48 468.5 134.81 468.46 135.11 468.41 135.44 468.38 135.75 468.34 136.06 468.31 136.38 468.27 136.69 468.24 137.02 468.19 136.69 468.15 136.38 468.12 136.06 468.09 135.75 468.05 135.44 468.02 135.11 467.97 134.81 467.93 134.48 467.86 133.86 467.83 133.54 467.79 133.23 467.74 132.91 467.71 132.6 467.67 132.29 467.64 131.96 467.61 131.65 467.57 131.33 467.52 131.02 467.49 130.71 467.45 130.39 467.42 130.08 467.38 129.75 467.35 129.45 467.3 129.14 467.26 128.81 467.23 128.5 467.19 128.18 467.16 127.87 467.13 127.56 467.07 127.24 467.04 126.93 467.01 126.6 466.97 126.29 466.97 126.22 466.94 125.98 466.9 125.66 466.85 125.35 466.82 125.03 466.78 124.72 466.75 124.41 466.71 124.08 466.68 123.77 466.65 123.45 466.59 123.14 466.56 122.82 466.49 122.2 466.46 121.87 466.42 121.56 466.37 121.24 466.34 120.93 466.3 120.62 466.27 120.3 466.24 119.99 466.2 119.66 466.15 119.35 466.12 119.05 466.08 118.72 466.05 118.41 466.01 118.09 465.98 117.78 465.93 117.47 465.89 117.14 465.86 116.84 465.82 116.51 465.79 116.2 465.76 115.89 465.7 115.57 465.67 115.26 465.64 114.94 465.6 114.63 465.57 114.32 465.53 113.99 465.48 113.68 465.45 113.36 465.41 113.05 465.38 112.74 465.34 112.42 465.31 112.11 465.26 111.78 465.19 111.17 465.16 110.84 465.12 110.53 465.09 110.21 465.04 109.9 465 109.59 464.97 109.26 464.93 108.96 464.9 108.63 464.86 108.32 464.81 108.01 464.78 107.69 464.74 107.38 464.71 107.06 464.68 106.75 464.64 106.42 464.59 106.11 464.56 105.8 464.52 105.48 464.49 105.17 464.45 104.85 464.42 104.54 464.4 104.47 464.37 104.23 464.33 103.9 464.3 103.59 464.27 103.27 464.23 102.96 464.2 102.65 464.15 102.33 464.11 102.02 464.08 101.69 464.01 101.08 463.97 100.75 463.92 100.44 463.89 100.12 463.82 99.5 463.79 99.17 463.75 98.87 463.7 98.54 463.67 98.23 463.63 97.92 463.6 97.6 463.56 97.29 463.53 96.97 463.48 96.66 463.15 96.62 462.83 96.59 462.5 96.55 462.18 96.52 461.85 96.47 461.2 96.4 460.87 96.37 460.22 96.3 459.9 96.26 459.25 96.19 458.92 96.16 458.59 96.13 458.27 96.07 457.29 95.97 456.97 95.94 456.32 95.87 455.99 95.83 455.34 95.77 455.01 95.71 454.69 95.68 454.36 95.65 454.04 95.61 453.39 95.54 453.06 95.51 452.41 95.44 452.09 95.41 451.76 95.37 451.43 95.32 450.78 95.25 450.46 95.22 449.48 95.12 449.16 95.08 448.5 95.01 448.18 94.96 447.85 94.93 447.53 94.89 446.88 94.82 446.55 94.79 446.23 94.76 445.9 94.72 445.58 94.69 445.25 94.65 444.92 94.62 444.58 94.57 443.93 94.5 443.61 94.46 442.95 94.4 442.63 94.36 441.65 94.26 441.33 94.21 441 94.17 440.68 94.14 440.03 94.07 439.7 94.04 439.37 94 439.05 93.97 438.72 93.93 438.07 93.86 437.75 93.81 437.1 93.74 436.77 93.71 436.12 93.64 435.79 93.61 435.14 93.54 434.82 93.51 434.49 93.45 434.17 93.42 433.84 93.38 433.19 93.32 432.86 93.28 432.21 93.21 431.89 93.18 431.24 93.11 430.91 93.06 430.26 92.99 429.94 92.96 429.28 92.89 428.96 92.85 428.31 92.79 427.98 92.75 427.66 92.72 427.33 92.67 427.01 92.63 426.35 92.56 426.03 92.53 425.38 92.46 425.05 92.43 424.71 92.39 424.38 92.36 424.06 92.31 423.41 92.24 423.08 92.2 422.43 92.13 422.11 92.1 421.78 92.07 422.11 92.03 422.43 92 422.76 91.96 423.08 91.91 423.41 91.88 424.06 91.81 424.38 91.77 424.71 91.74 425.05 91.71 425.38 91.67 426.03 91.6 426.35 91.55 427.01 91.48 427.33 91.45 427.98 91.38 428.31 91.35 428.96 91.28 429.28 91.24 429.61 91.21 429.94 91.16 430.26 91.12 430.91 91.06 431.24 91.02 431.89 90.95 432.21 90.92 432.86 90.85 433.19 90.8 433.84 90.73 434.17 90.7 434.82 90.63 435.14 90.59 435.79 90.52 436.12 90.49 436.44 90.44 436.77 90.4 437.1 90.37 437.75 90.3 438.07 90.27 438.72 90.2 439.05 90.16 439.37 90.13 439.7 90.1 440.03 90.04 440.68 89.98 441 89.94 441.65 89.87 441.98 89.84 442.63 89.77 442.95 89.74 443.28 89.68 443.61 89.65 444.58 89.55 444.92 89.51 445.58 89.44 445.9 89.41 446.23 89.38 446.55 89.34 446.88 89.29 447.2 89.26 447.53 89.22 448.5 89.12 448.83 89.09 449.48 89.02 449.81 88.98 450.13 88.93 450.46 88.9 451.11 88.83 451.43 88.79 452.41 88.69 452.74 88.66 453.39 88.59 453.71 88.54 454.04 88.5 454.36 88.47 455.01 88.4 455.34 88.37 456.32 88.26 456.64 88.23 456.97 88.18 457.29 88.14 457.94 88.07 458.27 88.04 458.92 87.97 459.25 87.94 460.22 87.83 460.55 87.78 460.87 87.75 461.2 87.71 461.85 87.65 462.18 87.61 462.5 87.58 462.83 87.54 463.15 87.51 463.48 87.48 463.53 87.15 463.56 86.84 463.6 86.52 463.67 85.9 463.7 85.57 463.75 85.27 463.79 84.94 463.82 84.63 463.85 84.32 463.89 84 463.92 83.69 463.97 83.36 464.01 83.06 464.04 82.75 464.08 82.42 464.11 82.11 464.15 81.79 464.2 81.48 464.23 81.17 464.27 80.85 464.3 80.54 464.33 80.21 464.37 79.9 464.42 79.58 464.45 79.27 464.49 78.96 464.52 78.64 464.56 78.33 464.59 78 464.64 77.69 464.68 77.38 464.71 77.06 464.74 76.75 464.78 76.43 464.81 76.12 464.86 75.81 464.9 75.48 464.93 75.17 464.97 74.85 465.04 74.23 465.09 73.91 465.12 73.6 465.16 73.27 465.19 72.96 465.22 72.66 465.26 72.33 465.31 72.02 465.34 71.7 465.38 71.39 465.41 71.08 465.45 70.76 465.48 70.45 465.53 70.12 465.6 69.5 465.64 69.18 465.67 68.87 465.7 68.55 465.76 68.24 465.79 67.93 465.82 67.6 465.86 67.29 465.89 66.97 465.93 66.66 465.98 66.35 466.01 66.03 466.05 65.72 466.08 65.39 466.12 65.09 466.15 64.78 466.2 64.45 466.24 64.14 466.27 63.82 466.3 63.51 466.34 63.18 466.37 62.88 466.42 62.57 466.46 62.24 466.49 61.93 466.53 61.61 466.56 61.3 466.59 60.99 466.65 60.67 466.68 60.36 466.71 60.03 466.75 59.72 466.78 59.41 466.82 59.09 466.85 58.78 466.9 58.46 466.97 57.84 467.01 57.51 467.04 57.2 467.07 56.88 467.13 56.57 467.16 56.26 467.19 55.94 467.23 55.63 467.26 55.3 467.3 54.99 467.35 54.69 467.38 54.36 467.42 54.05 467.45 53.73 467.52 53.11 467.57 52.79 467.61 52.48 467.64 52.15 467.71 51.53 467.74 51.21 467.79 50.9 467.83 50.58 467.86 50.27 467.9 49.96 467.93 49.63 467.97 49.33 468.02 49 468.05 48.69 468.09 48.38 468.12 48.06 468.15 47.75 468.19 47.42 468.24 47.12 468.27 47.42 468.31 47.75 468.34 48.06 468.38 48.38 468.41 48.69 468.46 49 468.5 49.33 468.53 49.63 468.56 49.96 468.6 50.27 468.63 50.58 468.68 50.9 468.72 51.21 468.75 51.53 468.79 51.84 468.82 52.15 468.86 52.48 468.91 52.79 468.94 53.11 469.01 53.73 469.04 54.05 469.08 54.36 469.13 54.69 469.16 54.99 469.2 55.3 469.23 55.63 469.27 55.94 469.3 56.26 469.35 56.57 469.39 56.88 469.42 57.2 469.46 57.51 469.49 57.84 469.52 58.15 469.58 58.46 469.61 58.78 469.64 59.09 469.68 59.41 469.75 60.03 469.8 60.36 469.83 60.67 469.87 60.99 469.9 61.3 469.94 61.61 469.97 61.93 470.02 62.24 470.06 62.57 470.09 62.88 470.12 63.18 470.16 63.51 470.19 63.82 470.24 64.14 470.28 64.45 470.31 64.78 470.35 65.09 470.38 65.39 470.41 65.72 470.47 66.03 470.5 66.35 470.53 66.66 470.57 66.97 470.6 67.29 470.64 67.6 470.67 67.93 470.72 68.24 470.76 68.55 470.79 68.87 470.83 69.18 470.86 69.5 470.89 69.81 470.95 70.12 470.98 70.45 471.01 70.76 471.05 71.08 471.08 71.39 471.12 71.7 471.17 72.02 471.2 72.33 471.24 72.66 471.27 72.96 471.31 73.27 471.34 73.6 471.39 73.91 471.43 74.23 471.46 74.54 471.49 74.85 471.53 75.17 471.56 75.48 471.61 75.81 471.68 76.43 471.72 76.75 471.75 77.06 471.79 77.38 471.84 77.69 471.87 78 471.91 78.33 471.94 78.64 471.97 78.96 472.01 79.27 472.06 79.58 472.09 79.9 472.13 80.21 472.16 80.54 472.2 80.85 472.23 81.17 472.28 81.48 472.32 81.79 472.35 82.11 472.38 82.42 472.42 82.75 472.45 83.06 472.5 83.36 472.54 83.69 472.57 84 472.61 84.32 472.64 84.63 472.68 84.94 472.73 85.27 472.76 85.57 472.8 85.9 472.86 86.52 472.9 86.84 472.95 87.15 472.98 87.48 473.31 87.51 473.64 87.54 474.29 87.61 474.61 87.65 475.26 87.71 475.59 87.75 475.91 87.78 476.24 87.83 477.22 87.94 477.54 87.97 478.19 88.04 478.52 88.07 479.17 88.14 479.49 88.18 479.82 88.23 480.15 88.26 480.47 88.3 480.71 88.31 480.8 88.33 481.12 88.37 481.45 88.4 481.77 88.43 482.1 88.47 482.42 88.5 482.75 88.54 483.07 88.59 483.33 88.62 483.4 88.62 483.73 88.66 484.05 88.69 485.03 88.79 485.35 88.83 486 88.9 486.33 88.93 486.65 88.98 486.98 89.02 487.63 89.09 487.96 89.12 488.28 89.15 488.62 89.19 488.95 89.22 489.28 89.26 489.6 89.29 489.93 89.34 490.58 89.41 490.9 89.44 491.55 89.51 491.88 89.55 492.21 89.58 492.27 89.58 492.53 89.62 492.86 89.65 493.18 89.68 493.51 89.74 493.83 89.77 494.48 89.84 494.81 89.87 495.46 89.94 495.79 89.98 496.44 90.04 496.76 90.1 497.41 90.16 497.74 90.2 498.39 90.27 498.71 90.3 499.37 90.37 499.69 90.4 500.02 90.44 500.34 90.49 500.67 90.52 501.32 90.59 501.64 90.63 502.3 90.7 502.62 90.73 503.27 90.8 503.6 90.85 504.25 90.92 504.57 90.95 504.9 90.99 505.22 91.02 505.55 91.06 506.2 91.12 506.53 91.16 506.85 91.21 507.18 91.24 507.5 91.28 507.83 91.31 508.17 91.35 508.5 91.38 509.15 91.45 509.47 91.48 510.12 91.55 510.45 91.6 511.1 91.67 511.43 91.71 511.75 91.74 512.08 91.77 512.4 91.81 513.05 91.88 513.38 91.91 513.7 91.96 514.03 92 514.35 92.03 514.68 92.07"></polygon><g><polygon class="cls-1" points="571.98 91.71 571.92 91.77 571.92 91.71 571.98 91.71"></polygon><path class="cls-1" d="m603.63,91.71v174.28h-31.71v-31.56c0-1.79-1.45-3.25-3.24-3.26l-66.65-.35,31.55-31.81,35.07.26c1.81.01,3.28-1.45,3.28-3.26v-59.11l-127.38,129.08h-44.54l171.92-174.22.06-.06h31.65Z"></path></g></svg> 