<?xml version="1.0" encoding="UTF-8"?> <svg xmlns="http://www.w3.org/2000/svg" id="_Слой_1" data-name=" Слой 1" viewBox="0 0 1380.45 435.77"><defs><style> .cls-1 { fill: #121212; } </style></defs><g><polygon class="cls-1" points="379.25 321.38 356.25 385.85 345.46 385.85 345.36 385.54 327.3 335.83 309.06 385.85 298.06 385.85 297.96 385.54 275.06 321.38 285.99 321.38 286.1 321.66 304.06 372.27 322.78 321.38 332.29 321.38 332.4 321.66 350.7 372.51 369.11 321.38 379.25 321.38"></polygon><polygon class="cls-1" points="439.07 377.06 439.07 385.85 388.97 385.85 388.97 321.38 437.72 321.38 437.72 330.14 399.52 330.14 399.52 348.82 433.55 348.82 433.55 357.41 399.52 357.41 399.52 377.06 439.07 377.06"></polygon><polygon class="cls-1" points="498.26 377.06 498.26 385.85 450.99 385.85 450.99 321.38 461.54 321.38 461.54 377.06 498.26 377.06"></polygon><polygon class="cls-1" points="554.42 377.06 554.42 385.85 507.16 385.85 507.16 321.38 517.71 321.38 517.71 377.06 554.42 377.06"></polygon><polygon class="cls-1" points="622.51 321.38 622.51 385.85 613.93 385.85 613.83 385.68 573.87 339.17 573.87 385.85 563.28 385.85 563.28 321.38 571.87 321.38 572.01 321.52 611.96 368.03 611.96 321.38 622.51 321.38"></polygon><polygon class="cls-1" points="690.09 377.06 690.09 385.85 639.99 385.85 639.99 321.38 688.74 321.38 688.74 330.14 650.54 330.14 650.54 348.82 684.57 348.82 684.57 357.41 650.54 357.41 650.54 377.06 690.09 377.06"></polygon><path class="cls-1" d="m751.28,368.06c0,3.28-1,6.38-2.9,9.17-1.93,2.83-4.9,5.1-8.86,6.79-3.96,1.69-9,2.55-14.96,2.55-5.17,0-10.21-.76-14.96-2.28-4.76-1.48-8.55-3.45-11.27-5.83l-.28-.24,4-7.86.41.34c2.52,2.07,5.79,3.83,9.76,5.21,3.93,1.34,8.1,2.07,12.34,2.07,3.9,0,7.07-.45,9.45-1.28,2.38-.79,4.14-1.93,5.24-3.34s1.65-3,1.65-4.76c0-2.07-.69-3.69-2.14-4.96-1.45-1.28-3.41-2.34-5.76-3.14-2.38-.79-5.07-1.52-7.93-2.14-2.9-.59-5.86-1.31-8.83-2.14-2.93-.79-5.69-1.86-8.1-3.17-2.48-1.28-4.52-3.07-6.03-5.24-1.52-2.24-2.31-5.1-2.31-8.58s.97-6.45,2.83-9.27c1.9-2.79,4.83-5.1,8.72-6.79,3.9-1.65,8.9-2.52,14.86-2.52,3.96,0,7.93.48,11.83,1.45,3.93,1,7.34,2.41,10.2,4.24l.31.21-3.55,8.07-.41-.28c-2.86-1.79-5.9-3.1-9.07-3.9-3.21-.79-6.31-1.21-9.31-1.21-3.72,0-6.86.45-9.24,1.34-2.38.86-4.14,2.03-5.21,3.48-1.07,1.41-1.59,3.03-1.59,4.83,0,2.14.69,3.76,2.1,5.03,1.48,1.28,3.41,2.31,5.79,3.1,2.38.76,5.07,1.48,7.93,2.1,2.83.62,5.79,1.34,8.79,2.14,2.96.79,5.69,1.86,8.14,3.14,2.48,1.28,4.48,3.03,6.03,5.21,1.52,2.21,2.31,5.03,2.31,8.45h.02Z"></path><path class="cls-1" d="m810.48,368.06c0,3.28-.97,6.38-2.86,9.17-1.93,2.83-4.9,5.1-8.86,6.79-3.97,1.69-9,2.55-14.96,2.55-5.21,0-10.24-.76-14.96-2.28-4.76-1.48-8.55-3.45-11.31-5.83l-.24-.24,3.96-7.86.41.34c2.55,2.07,5.83,3.83,9.76,5.21,3.97,1.34,8.1,2.07,12.38,2.07,3.86,0,7.07-.45,9.45-1.28,2.38-.79,4.14-1.93,5.24-3.34s1.65-3,1.65-4.76c0-2.07-.69-3.69-2.14-4.96-1.48-1.28-3.41-2.34-5.76-3.14-2.41-.79-5.07-1.52-7.96-2.14-2.9-.59-5.86-1.31-8.79-2.14-2.93-.79-5.69-1.86-8.14-3.17-2.48-1.28-4.48-3.07-6-5.24-1.55-2.24-2.31-5.1-2.31-8.58s.93-6.45,2.83-9.27c1.9-2.79,4.83-5.1,8.72-6.79,3.86-1.65,8.86-2.52,14.86-2.52,3.96,0,7.93.48,11.83,1.45,3.9,1,7.34,2.41,10.21,4.24l.31.21-3.55,8.07-.41-.28c-2.86-1.79-5.93-3.1-9.1-3.9-3.17-.79-6.31-1.21-9.27-1.21-3.76,0-6.86.45-9.27,1.34-2.34.86-4.1,2.03-5.17,3.48-1.07,1.41-1.62,3.03-1.62,4.83,0,2.14.69,3.76,2.14,5.03,1.48,1.28,3.41,2.31,5.76,3.1,2.38.76,5.07,1.48,7.96,2.1,2.83.62,5.79,1.34,8.79,2.14,2.97.79,5.69,1.86,8.14,3.14,2.48,1.31,4.48,3.07,6,5.21,1.55,2.21,2.31,5.03,2.31,8.45h-.03Z"></path><path class="cls-1" d="m900.18,369.82l6.93,6.31-.31.31c-3.14,3.31-6.96,5.83-11.45,7.55-4.45,1.72-9.41,2.59-14.76,2.59s-10.03-.83-14.41-2.45c-4.41-1.62-8.27-3.93-11.51-6.9-3.21-2.97-5.79-6.48-7.58-10.45-1.83-3.96-2.76-8.41-2.76-13.17s.93-9.21,2.76-13.17c1.83-4,4.38-7.52,7.65-10.45,3.24-2.96,7.14-5.31,11.51-6.93,4.41-1.62,9.27-2.41,14.45-2.41s10.21.83,14.65,2.52c4.48,1.69,8.31,4.21,11.45,7.52l.31.31-6.93,6.31-.28-.31c-2.55-2.48-5.45-4.34-8.58-5.55-3.17-1.24-6.62-1.86-10.2-1.86s-7.27.62-10.48,1.79c-3.21,1.21-6,2.9-8.34,5-2.34,2.14-4.17,4.72-5.48,7.62-1.28,2.93-1.93,6.17-1.93,9.62s.66,6.65,1.93,9.58c1.31,2.93,3.14,5.48,5.48,7.62s5.14,3.83,8.34,5c3.21,1.21,6.72,1.79,10.48,1.79s7.03-.62,10.2-1.83c3.14-1.21,6.03-3.14,8.55-5.69l.31-.28h0Z"></path><polygon class="cls-1" points="964.96 377.06 964.96 385.85 917.66 385.85 917.66 321.38 928.21 321.38 928.21 377.06 964.96 377.06"></polygon><path class="cls-1" d="m1029.12,321.38v36.58c0,9.31-2.62,16.45-7.76,21.31-5.14,4.83-12.31,7.31-21.37,7.31s-16.17-2.48-21.31-7.31c-5.17-4.83-7.79-12-7.79-21.31v-36.58h10.55v36.23c0,6.93,1.62,12.03,4.86,15.2,3.21,3.17,7.86,4.79,13.79,4.79s10.65-1.62,13.89-4.79,4.86-8.27,4.86-15.2v-36.23h10.28Z"></path><path class="cls-1" d="m1102.7,358.86c-1.79-2.52-4.24-4.45-7.27-5.72-.66-.31-1.34-.55-2.07-.76,2.41-1.28,4.41-3,5.9-5.17,1.69-2.41,2.55-5.41,2.55-8.96,0-5.21-2.17-9.38-6.48-12.38-4.27-2.96-10.41-4.48-18.27-4.48h-30.86v64.47h32.79c8.65,0,15.27-1.55,19.69-4.59,4.48-3.07,6.72-7.45,6.72-13.03,0-3.69-.9-6.86-2.69-9.38h-.01Zm-45.96,18.75v-20.31h21.86c5.24,0,9.31.83,12.07,2.48,2.76,1.62,4.07,4.17,4.07,7.72s-1.31,6-4.07,7.62c-2.76,1.65-6.83,2.48-12.07,2.48h-21.86Zm34.51-38.27c0,3.28-1.28,5.65-3.86,7.27-2.65,1.62-6.41,2.48-11.2,2.48h-19.44v-19.51h19.44c4.79,0,8.55.83,11.2,2.48,2.59,1.62,3.86,4,3.86,7.27h0Z"></path></g><g><path class="cls-1" d="m591.43,49.43c-20.12,0-38.13,4.03-54.01,12.08-15.89,8.05-28.33,19.07-37.33,33.04-9,13.98-13.5,30.39-13.5,49.23v108.26h37.6v-101.14c0-13.07,2.73-24.47,8.21-34.19,5.47-9.73,13.32-17.32,23.56-22.79,10.23-5.47,22.06-8.21,35.48-8.21,20.83,0,37.33,5.93,49.51,17.78s18.27,27.65,18.27,47.41v101.14h37.07v-108.26c0-18.54-4.42-34.95-13.24-49.23-8.83-14.29-21.18-25.38-37.07-33.27-15.88-7.9-34.07-11.85-54.54-11.85h-.01Z"></path><path class="cls-1" d="m899.7,53.99v25.68c-18.82-18.82-44.82-30.48-73.5-30.48-57.4,0-103.91,46.54-103.91,103.91s46.51,103.91,103.91,103.91c28.68,0,54.68-11.65,73.5-30.48v25.72h37.06V53.99h-37.06Zm-73.5,166.83c-37.34,0-67.71-30.37-67.71-67.71s30.37-67.71,67.71-67.71,67.71,30.37,67.71,67.71-30.37,67.71-67.71,67.71Z"></path><path class="cls-1" d="m240.78,53.98l-87.03,186.71c-3.23,6.93-10.18,11.36-17.83,11.36h0c-7.64,0-14.6-4.43-17.83-11.36L31.06,53.98h40.85l64.02,137.21,63.99-137.21h40.86Z"></path><path class="cls-1" d="m456.48,153.37c0-8.83-1.1-17.41-3.21-25.62-11.38-45.03-52.16-78.3-100.7-78.3s-89.29,33.27-100.7,78.3c-2.1,8.21-3.21,16.79-3.21,25.62,0,3.86.21,7.69.66,11.45,1.41,13.27,5.38,25.79,11.38,37.06,17.41,32.92,52.02,55.4,91.88,55.4s74.5-22.48,91.88-55.4h-44.72c-12.2,11.89-28.82,19.2-47.16,19.2s-34.96-7.31-47.16-19.2c-10.07-9.76-17.1-22.65-19.55-37.06h169.97c.45-3.76.66-7.58.66-11.45h-.02Zm-166.59-25.62c10.1-24.68,34.41-42.1,62.68-42.1s52.58,17.41,62.68,42.1h-125.36Z"></path><path class="cls-1" d="m1349.38,153.34c0-8.83-1.1-17.41-3.21-25.62-11.38-45.03-52.16-78.3-100.7-78.3s-89.29,33.27-100.7,78.3c-2.1,8.21-3.21,16.79-3.21,25.62,0,3.86.21,7.69.66,11.45,1.41,13.27,5.38,25.79,11.38,37.06,17.41,32.92,52.02,55.4,91.88,55.4s74.5-22.48,91.88-55.4h-44.72c-12.2,11.89-28.82,19.2-47.16,19.2s-34.96-7.31-47.16-19.2c-10.07-9.76-17.1-22.65-19.55-37.06h169.97c.45-3.76.66-7.58.66-11.45h-.02Zm-166.59-25.62c10.1-24.68,34.41-42.1,62.68-42.1s52.58,17.41,62.68,42.1h-125.36Z"></path><path class="cls-1" d="m1150.86,71.84l-34.1,20.89c-9.21-4.69-19.62-7.34-30.61-7.34-15.45,0-29.71,5.2-41.12,13.94-16.65,12.76-25.73,33.1-25.73,54.09v98.84h-37.06V53.95h37.06v19.62c18.07-15.24,41.37-24.37,66.85-24.37s46.96,8.45,64.71,22.65h0Z"></path></g></svg> 