<?xml version="1.0" encoding="UTF-8"?> <svg xmlns="http://www.w3.org/2000/svg" viewBox="0 0 93.00 26.14" data-guides="{&quot;vertical&quot;:[],&quot;horizontal&quot;:[]}"><defs></defs><path fill="#fffcfa" stroke="" fill-opacity="1" stroke-width="1" stroke-opacity="0" class="cls-1" id="tSvg18a274fb652" title="Path 1" d="M11.4564 17.0643C11.4564 18.3191 11.4564 19.5739 11.4564 20.8287C11.4564 20.9366 11.3686 21.0244 11.2607 21.0244C10.3723 21.0244 9.484 21.0244 8.5956 21.0244C8.4877 21.0244 8.3999 20.9366 8.3999 20.8287C8.3999 19.5739 8.3999 18.3191 8.3999 17.0643C8.3999 17.0222 8.3871 16.982 8.3615 16.949C6.1653 13.9401 3.969 10.9311 1.7728 7.9221C1.6777 7.7922 1.771 7.6112 1.9301 7.6112C2.8935 7.6112 3.8568 7.6112 4.8202 7.6112C4.8824 7.6112 4.9409 7.6404 4.9775 7.6916C6.6097 9.9318 8.242 12.1719 9.8742 14.412C9.9095 14.412 9.9449 14.412 9.9803 14.412C11.6125 12.1719 13.2447 9.9318 14.877 7.6916C14.9135 7.6404 14.9721 7.6112 15.0343 7.6112C15.997 7.6112 16.9598 7.6112 17.9225 7.6112C18.0816 7.6112 18.1749 7.7922 18.0798 7.9221C15.8836 10.9305 13.6874 13.9388 11.4912 16.9472C11.4674 16.9801 11.4528 17.0204 11.4564 17.0643Z"></path><path fill="#fffcfa" stroke="" fill-opacity="1" stroke-width="1" stroke-opacity="0" class="cls-1" id="tSvg128e7a5812c" title="Path 2" d="M33.4905 17.4795C33.4905 18.0282 33.3643 18.5422 33.1101 19.0215C32.8576 19.5007 32.4461 19.9159 31.8772 20.2671C31.3083 20.6183 30.5694 20.8964 29.6639 21.1012C28.7566 21.3061 27.6427 21.4085 26.322 21.4085C25.5757 21.4085 24.8496 21.3573 24.1398 21.2549C23.4301 21.1525 22.7552 21.0061 22.115 20.8141C21.4747 20.622 20.8858 20.3897 20.3443 20.1153C19.8761 19.8775 19.4627 19.6178 19.1041 19.3361C19.0145 19.2666 19.0072 19.1331 19.084 19.0507C19.3486 18.7623 19.6133 18.4739 19.8779 18.1856C19.9456 18.1124 20.0553 18.1032 20.1358 18.1618C20.9059 18.7361 21.793 19.1751 22.8009 19.4824C23.8691 19.808 25.0434 19.9708 26.322 19.9708C27.7415 19.9708 28.7475 19.7916 29.3365 19.4349C29.9273 19.0782 30.2218 18.5861 30.2218 17.9587C30.2218 17.474 29.9895 17.0643 29.5267 16.7332C29.0621 16.4003 28.2756 16.0747 27.1653 15.7564C25.83 15.3735 24.4947 14.9906 23.1594 14.6077C21.8369 14.2254 20.84 13.7352 20.1651 13.1425C19.4901 12.5499 19.1535 11.7926 19.1535 10.8726C19.1535 10.4006 19.2761 9.9433 19.523 9.5025C19.7681 9.0617 20.1523 8.6721 20.6717 8.3337C21.1912 7.9953 21.8552 7.7264 22.6637 7.5288C23.4722 7.3313 24.4453 7.2325 25.5849 7.2325C26.2726 7.2325 26.9586 7.2837 27.6409 7.3862C28.3231 7.4886 28.9761 7.6349 29.6017 7.827C30.2273 8.0191 30.8108 8.2514 31.3522 8.5257C31.8205 8.7635 32.2339 9.0233 32.5924 9.305C32.682 9.3745 32.6894 9.508 32.6125 9.5903C32.3479 9.8787 32.0833 10.1671 31.8187 10.4555C31.751 10.5287 31.6394 10.5378 31.5589 10.4775C30.7943 9.9049 29.9401 9.4641 28.9999 9.1568C28.0012 8.8312 26.8635 8.6684 25.5849 8.6684C24.5313 8.6684 23.7393 8.8349 23.2125 9.1659C22.6857 9.4989 22.4223 9.9068 22.4223 10.3915C22.4223 10.6604 22.4716 10.8927 22.5704 11.0902C22.6692 11.2878 22.8338 11.4725 23.0661 11.6463C23.2984 11.8201 23.6039 11.9792 23.9825 12.1255C24.363 12.2719 24.8331 12.4292 25.3946 12.5956C26.7232 12.9785 28.0518 13.3614 29.3804 13.7443C30.659 14.1157 31.665 14.6004 32.3949 15.2004C33.1265 15.8003 33.4905 16.5613 33.4905 17.4795Z"></path><path fill="#fffcfa" stroke="" fill-opacity="1" stroke-width="1" stroke-opacity="0" class="cls-1" id="tSvg7ce8f95d97" title="Path 3" d="M45.0673 7.613C43.5345 7.613 42.0016 7.613 40.4688 7.613C40.392 7.613 40.3225 7.6587 40.2895 7.7282C38.3451 12.0682 36.4007 16.4082 34.4563 20.7482C34.3978 20.8781 34.4929 21.0244 34.6356 21.0244C35.5038 21.0244 36.3721 21.0244 37.2403 21.0244C37.319 21.0244 37.3903 20.9769 37.4196 20.9055C37.8494 19.8989 38.2793 18.8922 38.7091 17.8856C38.7402 17.8142 38.8116 17.7667 38.8884 17.7667C41.4724 17.7667 44.0564 17.7667 46.6404 17.7667C46.719 17.7667 46.7904 17.8142 46.8196 17.8856C47.2495 18.8922 47.6794 19.8989 48.1092 20.9055C48.1403 20.9769 48.2116 21.0244 48.2885 21.0244C49.1567 21.0244 50.025 21.0244 50.8932 21.0244C51.0359 21.0244 51.1292 20.8781 51.0725 20.7482C49.1281 16.4082 47.1836 12.0682 45.2392 7.7282C45.2082 7.6587 45.1386 7.613 45.06 7.613C45.0624 7.613 45.0649 7.613 45.0673 7.613M39.803 16.3289C39.6621 16.3289 39.567 16.1826 39.6237 16.0527C40.6371 13.7815 41.6504 11.5103 42.6638 9.2391C42.7339 9.2391 42.804 9.2391 42.8741 9.2391C43.8875 11.5103 44.9009 13.7815 45.9142 16.0527C45.9727 16.1826 45.8776 16.3289 45.735 16.3289C43.7576 16.3289 41.7803 16.3289 39.803 16.3289Z"></path><path fill="#fffcfa" stroke="" fill-opacity="1" stroke-width="1" stroke-opacity="0" class="cls-1" id="tSvg485064188d" title="Path 4" d="M60.4798 7.6112C61.5334 7.6112 62.4791 7.7172 63.315 7.9276C64.151 8.138 64.857 8.4453 65.4351 8.8477C66.0112 9.2501 66.4539 9.7421 66.763 10.3238C67.0722 10.9055 67.2276 11.5658 67.2276 12.3066C67.2276 13.3291 66.9459 14.1907 66.3844 14.8931C65.8667 15.5388 65.1406 16.0454 64.2077 16.4113C64.0851 16.4588 64.0394 16.607 64.1199 16.7112C65.1454 18.0441 66.171 19.3769 67.1965 20.7098C67.2953 20.8378 67.2039 21.0244 67.0411 21.0244C66.046 21.0244 65.0509 21.0244 64.0559 21.0244C63.9955 21.0244 63.9388 20.997 63.9004 20.9476C62.887 19.6318 61.8737 18.316 60.8603 17.0003C59.2878 17.0003 57.7154 17.0003 56.1429 17.0003C56.035 17.0003 55.9472 17.0881 55.9472 17.196C55.9472 18.4069 55.9472 19.6178 55.9472 20.8287C55.9472 20.9366 55.8594 21.0244 55.7515 21.0244C54.8631 21.0244 53.9747 21.0244 53.0864 21.0244C52.9784 21.0244 52.8906 20.9366 52.8906 20.8287C52.8906 16.4881 52.8906 12.1475 52.8906 7.8069C52.8906 7.699 52.9784 7.6112 53.0864 7.6112C55.5515 7.6112 58.0166 7.6112 60.4798 7.6112ZM55.9472 9.2446C55.9472 11.2853 55.9472 13.3261 55.9472 15.3668C55.9472 15.4747 56.035 15.5625 56.1429 15.5625C57.5892 15.5625 59.0354 15.5625 60.4817 15.5625C61.592 15.5625 62.4499 15.2973 63.0535 14.7668C63.6571 14.2364 63.9607 13.4169 63.9607 12.3048C63.9607 11.1927 63.6589 10.3732 63.0535 9.8427C62.4499 9.3123 61.592 9.047 60.4817 9.047C59.0354 9.047 57.5892 9.047 56.1429 9.047C56.035 9.047 55.9472 9.1348 55.9472 9.2446Z"></path><path fill="#fffcfa" stroke="" fill-opacity="1" stroke-width="1" stroke-opacity="0" class="cls-1" id="tSvg1be53a00b7" title="Path 5" d="M72.6182 21.0226C71.7298 21.0226 70.8415 21.0226 69.9531 21.0226C69.8452 21.0226 69.7574 20.9348 69.7574 20.8269C69.7574 16.4869 69.7574 12.1469 69.7574 7.8069C69.7574 7.699 69.8452 7.6112 69.9531 7.6112C70.8415 7.6112 71.7298 7.6112 72.6182 7.6112C72.7261 7.6112 72.8139 7.699 72.8139 7.8069C72.8139 12.1469 72.8139 16.4869 72.8139 20.8269C72.8139 20.9348 72.7261 21.0226 72.6182 21.0226Z"></path><path fill="#fffcfa" stroke="" fill-opacity="1" stroke-width="1" stroke-opacity="0" class="cls-1" id="tSvg4a50dd830d" title="Path 6" d="M85.4114 7.7282C87.3558 12.0682 89.3002 16.4082 91.2446 20.7482C91.3031 20.8781 91.208 21.0244 91.0653 21.0244C90.1971 21.0244 89.3288 21.0244 88.4606 21.0244C88.3819 21.0244 88.3106 20.9769 88.2813 20.9055C87.8515 19.8989 87.4216 18.8922 86.9918 17.8856C86.9607 17.8142 86.8893 17.7667 86.8125 17.7667C84.2279 17.7667 81.6433 17.7667 79.0587 17.7667C78.98 17.7667 78.9087 17.8142 78.8794 17.8856C78.4496 18.8922 78.0197 19.8989 77.5898 20.9055C77.5588 20.9769 77.4874 21.0244 77.4106 21.0244C76.5423 21.0244 75.6741 21.0244 74.8059 21.0244C74.6632 21.0244 74.5699 20.8781 74.6266 20.7482C76.5716 16.4082 78.5166 12.0682 80.4616 7.7282C80.4927 7.6587 80.5622 7.613 80.6409 7.613C82.1731 7.613 83.7054 7.613 85.2376 7.613C85.3144 7.613 85.3839 7.6587 85.4114 7.7282ZM79.9678 16.3308C81.9457 16.3308 83.9236 16.3308 85.9016 16.3308C86.0424 16.3308 86.1375 16.1844 86.0808 16.0546C85.0675 13.7834 84.0541 11.5122 83.0408 9.2409C82.9706 9.2409 82.9005 9.2409 82.8304 9.2409C81.817 11.5122 80.8037 13.7834 79.7903 16.0546C79.7318 16.1844 79.8269 16.3308 79.9678 16.3308Z"></path><path fill="#fffcfa" class="cls-1" x="223.08" y="25.89" width="21.42" height="7.87" rx=".54" ry=".54" id="tSvg8f269d734" title="Rectangle 1" fill-opacity="1" stroke="" stroke-opacity="0" d="M40.809 5.2757C40.809 4.9775 41.0508 4.7357 41.349 4.7357H44.1871C44.4853 4.7357 44.7271 4.9775 44.7271 5.2757V5.6353C44.7271 5.9335 44.4853 6.1753 44.1871 6.1753H41.349C41.0508 6.1753 40.809 5.9335 40.809 5.6353Z" style="transform-origin: 42.768px 5.45548px;"></path></svg> 