<?xml version="1.0" encoding="UTF-8"?> <svg xmlns="http://www.w3.org/2000/svg" viewBox="0 0 1158.00 357.60" data-guides="{&quot;vertical&quot;:[],&quot;horizontal&quot;:[]}"><defs></defs><path fill="#fffcfa" stroke="none" fill-opacity="1" stroke-width="1" stroke-opacity="1" class="cls-1" id="tSvg17193901461" title="Path 1" d="M187.9743 341.0691C181.8244 341.0691 176.3806 339.748 171.6429 337.1058C166.9052 334.4636 163.1697 330.7737 160.482 326.036C157.7943 321.2983 156.4276 315.8545 156.4276 309.7046C156.4276 303.5547 157.7715 298.0198 160.482 293.2821C163.1697 288.5444 166.9052 284.8544 171.6201 282.2122C176.3579 279.5701 181.7561 278.249 187.8377 278.249C191.5276 278.249 194.9898 278.7501 198.1786 279.7295C201.3902 280.7317 204.2602 282.1439 206.8113 283.9661C209.3623 285.7883 211.4806 287.9521 213.1662 290.4577C214.8517 292.9632 216.0133 295.742 216.6283 298.7486C213.7432 298.7486 210.858 298.7486 207.9729 298.7486C207.4035 296.6987 206.5379 294.8537 205.3307 293.2137C204.1235 291.551 202.643 290.1388 200.8664 288.9088C199.0897 287.7016 197.1309 286.7677 194.9442 286.1299C192.7576 285.4922 190.4115 285.1733 187.8832 285.1733C183.3961 285.1733 179.41 286.1983 175.9251 288.2255C172.4401 290.2527 169.7296 293.0998 167.7708 296.767C165.8119 300.4342 164.8325 304.7391 164.8325 309.6818C164.8325 314.6245 165.8119 318.8611 167.7708 322.5283C169.7296 326.1727 172.4401 329.0198 175.9479 331.047C179.4328 333.0742 183.4416 334.0992 187.9743 334.0992C191.8465 334.0992 195.3542 333.3475 198.4747 331.8215C201.618 330.2954 204.078 328.1998 205.9229 325.4893C207.7451 322.7788 208.679 319.6128 208.679 316.0139C209.5749 316.0671 210.4708 316.1202 211.3667 316.1734C204.4348 316.1734 197.5029 316.1734 190.571 316.1734C190.571 313.9791 190.571 311.7849 190.571 309.5907C199.3934 309.5907 208.2159 309.5907 217.0383 309.5907C217.0383 311.8001 217.0383 314.0095 217.0383 316.2189C217.0383 321.025 215.7628 325.2843 213.2117 329.0198C210.6606 332.7553 207.1757 335.6936 202.8024 337.8347C198.4292 339.9758 193.4865 341.0463 187.9743 341.0691Z"></path><path fill="#fffcfa" stroke="none" fill-opacity="1" stroke-width="1" stroke-opacity="1" class="cls-1" id="tSvg127e36988e" title="Path 2" d="M226.2176 340.1124C226.2176 319.8026 226.2176 299.4927 226.2176 279.1828C234.6529 279.1828 243.0881 279.1828 251.5233 279.1828C256.4888 279.1828 260.7254 279.9573 264.2331 281.4834C267.7409 283.0094 270.4286 285.1733 272.2736 287.9521C274.1185 290.731 275.0752 294.0109 275.0752 297.7692C275.0752 301.5275 274.0958 304.7619 272.1369 307.5407C270.178 310.3196 267.3992 312.4834 263.8004 314.0095C260.2015 315.5356 255.9422 316.31 250.9995 316.31C244.3029 316.31 237.6063 316.31 230.9098 316.31C230.9098 314.1006 230.9098 311.8912 230.9098 309.6818C237.705 309.6818 244.5003 309.6818 251.2956 309.6818C254.5755 309.6818 257.3771 309.2035 259.6777 308.224C261.9782 307.2446 263.7093 305.878 264.9165 304.1013C266.1237 302.3247 266.7159 300.2064 266.7159 297.792C266.7159 295.3776 266.1237 293.1909 264.8937 291.4143C263.6637 289.6377 261.9326 288.271 259.6321 287.3144C257.3316 286.3349 254.53 285.8566 251.2045 285.8566C245.6999 285.8566 240.1954 285.8566 234.6908 285.8566C234.6908 303.9571 234.6908 322.0575 234.6908 340.158C231.8664 340.158 229.042 340.158 226.2176 340.1124ZM266.4653 340.1124C260.8849 330.9787 255.3044 321.8449 249.7239 312.7112C252.9204 312.7112 256.1168 312.7112 259.3132 312.7112C264.9924 321.8449 270.6716 330.9787 276.3507 340.1124C273.0632 340.1124 269.7756 340.1124 266.4653 340.1124Z"></path><path fill="#fffcfa" stroke="none" fill-opacity="1" stroke-width="1" stroke-opacity="1" class="cls-1" id="tSvg18c0a3bc537" title="Path 3" d="M277.8768 340.1124C286.3728 319.8026 294.8688 299.4927 303.3647 279.1828C306.5915 279.1828 309.8183 279.1828 313.0451 279.1828C321.4956 299.4927 329.946 319.8026 338.3964 340.1124C335.3898 340.1124 332.3832 340.1124 329.3766 340.1124C324.5098 327.9113 319.643 315.7102 314.7762 303.5091C313.8424 301.1403 312.7718 298.3614 311.5874 295.1954C310.3802 292.0065 308.8769 287.8838 307.0547 282.7817C307.8139 282.7817 308.5732 282.7817 309.3324 282.7817C307.533 287.9066 306.0297 292.0521 304.8453 295.2409C303.6608 298.4298 302.5675 301.1858 301.6109 303.5319C296.6606 315.733 291.7103 327.9341 286.76 340.1352C283.7989 340.1352 280.8379 340.1352 277.8768 340.1124ZM290.951 323.0066C290.951 320.8124 290.951 318.6181 290.951 316.4239C302.4005 316.4239 313.8499 316.4239 325.2994 316.4239C325.2994 318.6181 325.2994 320.8124 325.2994 323.0066C313.8499 323.0066 302.4005 323.0066 290.951 323.0066Z"></path><path fill="#fffcfa" stroke="none" fill-opacity="1" stroke-width="1" stroke-opacity="1" class="cls-1" id="tSvg18c0117ba50" title="Path 4" d="M344.0224 340.1124C344.0224 319.8026 344.0224 299.4927 344.0224 279.1828C352.2299 279.1828 360.4374 279.1828 368.6448 279.1828C373.6103 279.1828 377.8469 279.9573 381.3546 281.5061C384.8624 283.055 387.5501 285.2416 389.3951 288.0205C391.2628 290.8221 392.1967 294.102 392.1967 297.8603C392.1967 301.6186 391.24 304.8985 389.3267 307.7002C387.4134 310.5018 384.7029 312.6656 381.1269 314.2373C377.5736 315.8089 373.3142 316.5834 368.3487 316.5834C361.8344 316.5834 355.32 316.5834 348.8057 316.5834C348.8057 314.3891 348.8057 312.1949 348.8057 310.0007C355.3049 310.0007 361.804 310.0007 368.3032 310.0007C371.6287 310.0007 374.4303 309.4996 376.7308 308.4974C379.0313 307.4952 380.7852 306.0602 381.9924 304.238C383.1996 302.4158 383.8146 300.2747 383.8146 297.8603C383.8146 295.4459 383.1996 293.2821 381.9924 291.4826C380.7852 289.6832 379.0313 288.2938 376.7308 287.2916C374.4303 286.2894 371.6287 285.8111 368.3032 285.8111C363.0264 285.8111 357.7496 285.8111 352.4729 285.8111C352.4729 303.9115 352.4729 322.012 352.4729 340.1124C349.6485 340.1124 346.8241 340.1124 344.0224 340.1124Z"></path><path fill="#fffcfa" stroke="none" fill-opacity="1" stroke-width="1" stroke-opacity="1" class="cls-1" id="tSvg14a3a189638" title="Path 5" d="M400.0321 340.1124C400.0321 319.8026 400.0321 299.4927 400.0321 279.1828C402.8565 279.1828 405.6809 279.1828 408.5053 279.1828C408.5053 287.9901 408.5053 296.7974 408.5053 305.6046C420.7899 305.6046 433.0746 305.6046 445.3592 305.6046C445.3592 296.7974 445.3592 287.9901 445.3592 279.1828C448.1836 279.1828 451.008 279.1828 453.8324 279.1828C453.8324 299.4927 453.8324 319.8026 453.8324 340.1124C451.008 340.1124 448.1836 340.1124 445.3592 340.1124C445.3592 330.8117 445.3592 321.5109 445.3592 312.2101C433.0746 312.2101 420.7899 312.2101 408.5053 312.2101C408.5053 321.5109 408.5053 330.8117 408.5053 340.1124C405.6809 340.1124 402.8565 340.1124 400.0321 340.1124Z"></path><path fill="#fffcfa" stroke="none" fill-opacity="1" stroke-width="1" stroke-opacity="1" class="cls-1" id="tSvgc83ba0f97a" title="Path 6" d="M473.831 279.1828C473.831 299.4927 473.831 319.8026 473.831 340.1124C471.0066 340.1124 468.1822 340.1124 465.3578 340.1124C465.3578 319.8026 465.3578 299.4927 465.3578 279.1828C468.1822 279.1828 471.0066 279.1828 473.831 279.1828Z"></path><path fill="#fffcfa" stroke="none" fill-opacity="1" stroke-width="1" stroke-opacity="1" class="cls-1" id="tSvga878372f92" title="Path 7" d="M514.4886 341.0691C508.2021 341.0691 502.6672 339.748 497.9067 337.1058C493.1462 334.4636 489.4107 330.7737 486.7457 326.0588C484.058 321.3438 482.7141 315.9 482.7141 309.7046C482.7141 303.5091 484.058 298.0198 486.723 293.2821C489.3879 288.5444 493.1006 284.8544 497.8839 282.2122C502.6672 279.5701 508.2021 278.249 514.4886 278.249C518.0875 278.249 521.4585 278.7273 524.6246 279.6612C527.7907 280.595 530.6378 281.9617 533.1434 283.7611C535.6716 285.5605 537.7444 287.7244 539.4299 290.2527C541.1155 292.781 542.2771 295.6281 542.9149 298.7714C540.0449 298.7714 537.175 298.7714 534.305 298.7714C533.7356 296.5848 532.87 294.6487 531.64 292.9632C530.4328 291.2776 528.9751 289.8427 527.244 288.681C525.5357 287.5194 523.5768 286.6538 521.413 286.0616C519.2491 285.4694 516.9258 285.1733 514.4886 285.1733C509.7737 285.1733 505.6738 286.1983 502.1888 288.2255C498.7039 290.2527 495.9934 293.0998 494.0345 296.767C492.0984 300.4342 491.119 304.7391 491.119 309.6818C491.119 314.6245 492.0984 318.8611 494.0345 322.5283C495.9706 326.1727 498.6811 329.0198 502.1888 331.047C505.6738 333.0742 509.7737 334.0992 514.4886 334.0992C516.9486 334.0992 519.2491 333.8031 521.3902 333.2337C523.5541 332.6414 525.4901 331.7759 527.2212 330.637C528.9523 329.4982 530.4328 328.0632 531.64 326.3776C532.8472 324.6921 533.7356 322.756 534.305 320.5694C537.175 320.5694 540.0449 320.5694 542.9149 320.5694C542.2999 323.7355 541.1382 326.5826 539.4755 329.0882C537.7899 331.6165 535.6944 333.7575 533.1661 335.5569C530.6378 337.3336 527.7907 338.7002 524.6246 339.6569C521.4585 340.5908 518.0875 341.0691 514.4886 341.0691Z"></path><path fill="#fffcfa" stroke="none" fill-opacity="1" stroke-width="1" stroke-opacity="1" class="cls-1" id="tSvg85452dbdbb" title="Path 8" d="M581.6365 279.1828C581.6365 299.4927 581.6365 319.8026 581.6365 340.1124C578.8121 340.1124 575.9877 340.1124 573.1633 340.1124C573.1633 319.8026 573.1633 299.4927 573.1633 279.1828C575.9877 279.1828 578.8121 279.1828 581.6365 279.1828ZM594.6196 340.1124C589.0695 340.1124 583.5194 340.1124 577.9693 340.1124C577.9693 337.903 577.9693 335.6936 577.9693 333.4842C583.3372 333.4842 588.7051 333.4842 594.073 333.4842C599.7901 333.4842 604.505 332.5276 608.2633 330.5915C612.0216 328.6782 614.8232 325.9221 616.6682 322.3233C618.5131 318.7472 619.4242 314.4651 619.4242 309.4996C619.4242 304.5341 618.5131 300.3658 616.7137 296.8126C614.8915 293.2593 612.181 290.5488 608.5594 288.6355C604.915 286.7222 600.4051 285.7655 595.0068 285.7655C589.2062 285.7655 583.4055 285.7655 577.6049 285.7655C577.6049 283.5561 577.6049 281.3467 577.6049 279.1373C583.5877 279.1373 589.5706 279.1373 595.5535 279.1373C602.2956 279.1373 608.0583 280.3445 612.8871 282.7817C617.7159 285.2189 621.4059 288.681 623.9797 293.2365C626.5536 297.7692 627.8291 303.1902 627.8291 309.4996C627.8291 315.8089 626.5308 321.3211 623.9114 325.8765C621.3147 330.4548 617.5337 333.9625 612.6138 336.3997C607.6711 338.8597 601.6806 340.0897 594.5968 340.0897C594.6044 340.0972 594.612 340.1048 594.6196 340.1124"></path><path fill="#fffcfa" stroke="none" fill-opacity="1" stroke-width="1" stroke-opacity="1" class="cls-1" id="tSvg10a35a0716e" title="Path 9" d="M636.7123 340.1124C636.7123 319.8026 636.7123 299.4927 636.7123 279.1828C651.5404 279.1828 666.3685 279.1828 681.1966 279.1828C681.1966 281.3922 681.1966 283.6017 681.1966 285.8111C669.1929 285.8111 657.1892 285.8111 645.1855 285.8111C645.1855 292.4545 645.1855 299.0979 645.1855 305.7413C656.3236 305.7413 667.4618 305.7413 678.6 305.7413C678.6 307.9355 678.6 310.1298 678.6 312.324C667.4618 312.324 656.3236 312.324 645.1855 312.324C645.1855 319.385 645.1855 326.446 645.1855 333.507C657.2196 333.507 669.2536 333.507 681.2877 333.507C681.2877 335.7164 681.2877 337.9258 681.2877 340.1352C666.4292 340.1352 651.5708 340.1352 636.7123 340.1124Z"></path><path fill="#fffcfa" stroke="none" fill-opacity="1" stroke-width="1" stroke-opacity="1" class="cls-1" id="tSvg108549bb1a" title="Path 10" d="M712.2878 341.0919C707.0034 341.0919 702.4479 340.2947 698.5985 338.6775C694.7491 337.083 691.7653 334.7825 689.6242 331.7987C687.4832 328.8376 686.3898 325.3299 686.3215 321.2983C689.2218 321.2983 692.1222 321.2983 695.0225 321.2983C695.0908 324.0544 695.8197 326.4004 697.2319 328.3593C698.6441 330.3181 700.6257 331.7987 703.1996 332.8237C705.7734 333.8486 708.8028 334.3497 712.265 334.3497C715.7272 334.3497 718.4832 333.917 720.9887 333.0514C723.4943 332.1859 725.4303 330.9331 726.8425 329.3159C728.2547 327.6987 728.9608 325.7854 728.9608 323.5988C728.9608 321.8449 728.4597 320.3644 727.5031 319.1117C726.5236 317.8817 725.0203 316.7884 723.0159 315.8773C720.9887 314.9662 718.4149 314.169 715.2488 313.4856C712.6142 312.901 709.9796 312.3164 707.3451 311.7318C700.6029 310.2285 695.683 308.2013 692.5397 305.6274C689.3965 303.0536 687.8476 299.7053 687.8476 295.5826C687.8476 292.0976 688.8498 289.0455 690.8542 286.4488C692.8586 283.8522 695.6602 281.825 699.2591 280.39C702.8579 278.9551 707.0262 278.249 711.7639 278.249C716.5016 278.249 720.6471 279.0006 724.2004 280.5267C727.7309 282.0528 730.5097 284.1711 732.5141 286.9044C734.5185 289.6377 735.5663 292.8721 735.7029 296.6076C732.9089 296.6076 730.1149 296.6076 727.3209 296.6076C727.0475 292.986 725.4759 290.1388 722.6287 288.1116C719.7815 286.0844 716.0688 285.0366 711.5133 285.0366C708.5295 285.0366 705.8873 285.4694 703.6096 286.3349C701.309 287.2005 699.5096 288.3849 698.2113 289.9338C696.913 291.4826 696.2525 293.2365 696.2525 295.2409C696.2525 296.9492 696.7763 298.4298 697.8241 299.6142C698.8719 300.8214 700.4207 301.8464 702.4479 302.7119C704.4751 303.5775 706.9806 304.3291 709.9645 304.9897C712.5231 305.5591 715.0818 306.1285 717.6405 306.698C720.6699 307.3813 723.4031 308.2013 725.8403 309.1807C728.2775 310.1601 730.3503 311.299 732.0813 312.6656C733.7896 314.0095 735.1107 315.5812 736.0446 317.3578C736.9557 319.1344 737.4113 321.1616 737.4113 323.4621C737.4113 326.9243 736.3863 329.9993 734.3135 332.6642C732.2408 335.3292 729.3253 337.4247 725.567 338.928C721.7859 340.4313 717.3671 341.183 712.2878 341.0919Z"></path><path fill="#fffcfa" stroke="none" fill-opacity="1" stroke-width="1" stroke-opacity="1" class="cls-1" id="tSvgc2ea28508f" title="Path 11" d="M754.2438 279.1828C754.2438 299.4927 754.2438 319.8026 754.2438 340.1124C751.4194 340.1124 748.595 340.1124 745.7706 340.1124C745.7706 319.8026 745.7706 299.4927 745.7706 279.1828C748.595 279.1828 751.4194 279.1828 754.2438 279.1828Z"></path><path fill="#fffcfa" stroke="none" fill-opacity="1" stroke-width="1" stroke-opacity="1" class="cls-1" id="tSvg128f452451" title="Path 12" d="M794.6509 341.0691C788.501 341.0691 783.0572 339.748 778.3195 337.1058C773.5818 334.4636 769.8463 330.7737 767.1586 326.036C764.4708 321.2983 763.1042 315.8545 763.1042 309.7046C763.1042 303.5547 764.4481 298.0198 767.1586 293.2821C769.8463 288.5444 773.5818 284.8544 778.2967 282.2122C783.0344 279.5701 788.4327 278.249 794.5142 278.249C798.2042 278.249 801.6664 278.7501 804.8552 279.7295C808.0668 280.7317 810.9368 282.1439 813.4878 283.9661C816.0389 285.7883 818.1572 287.9521 819.8427 290.4577C821.5283 292.9632 822.6899 295.742 823.3049 298.7486C820.4198 298.7486 817.5346 298.7486 814.6495 298.7486C814.08 296.6987 813.2145 294.8537 812.0073 293.2137C810.8001 291.551 809.3196 290.1388 807.5429 288.9088C805.7663 287.7016 803.8074 286.7677 801.6208 286.1299C799.4342 285.4922 797.0881 285.1733 794.5598 285.1733C790.0726 285.1733 786.0866 286.1983 782.6017 288.2255C779.1167 290.2527 776.4062 293.0998 774.4473 296.767C772.4885 300.4342 771.5091 304.7391 771.5091 309.6818C771.5091 314.6245 772.4885 318.8611 774.4473 322.5283C776.4062 326.1727 779.1167 329.0198 782.6244 331.047C786.1094 333.0742 790.1182 334.0992 794.6509 334.0992C798.5231 334.0992 802.0308 333.3475 805.1513 331.8215C808.2946 330.2954 810.7545 328.1998 812.5995 325.4893C814.4217 322.7788 815.3556 319.6128 815.3556 316.0139C816.2515 316.0671 817.1474 316.1202 818.0433 316.1734C811.1114 316.1734 804.1795 316.1734 797.2475 316.1734C797.2475 313.9791 797.2475 311.7849 797.2475 309.5907C806.07 309.5907 814.8924 309.5907 823.7149 309.5907C823.7149 311.8001 823.7149 314.0095 823.7149 316.2189C823.7149 321.025 822.4394 325.2843 819.8883 329.0198C817.3372 332.7553 813.8523 335.6936 809.479 337.8347C805.1057 339.9758 800.163 341.0463 794.6509 341.0691Z"></path><path fill="#fffcfa" stroke="none" fill-opacity="1" stroke-width="1" stroke-opacity="1" class="cls-1" id="tSvg18903939abb" title="Path 13" d="M832.8714 340.1124C832.8714 319.8026 832.8714 299.4927 832.8714 279.1828C836.1438 279.1828 839.4161 279.1828 842.6885 279.1828C852.1791 292.3482 861.6697 305.5135 871.1603 318.6789C871.8208 319.59 872.618 320.7516 873.5974 322.1866C874.5769 323.6216 875.6246 325.1932 876.7407 326.8788C877.8568 328.5871 878.9274 330.2954 879.9523 332.0037C879.6562 332.3833 879.3601 332.7629 879.064 333.1425C878.9501 331.5026 878.8363 329.7032 878.7451 327.7215C878.654 325.7399 878.5857 323.8721 878.5629 322.1183C878.5401 320.3644 878.5174 318.9978 878.5174 318.0411C878.5174 305.0808 878.5174 292.1204 878.5174 279.1601C881.357 279.1601 884.1965 279.1601 887.0361 279.1601C887.0361 299.4699 887.0361 319.7798 887.0361 340.0897C883.7334 340.0897 880.4307 340.0897 877.1279 340.0897C868.6775 328.3821 860.2271 316.6745 851.7767 304.9669C851.0022 303.8736 850.0456 302.4841 848.8612 300.8214C847.6995 299.1359 846.3557 297.177 844.8068 294.8993C843.2579 292.6215 841.5496 290.0477 839.6135 287.2005C839.9856 286.6918 840.3576 286.1831 840.7296 285.6744C840.8891 288.8177 841.003 291.6421 841.0941 294.1476C841.1852 296.6531 841.2535 298.817 841.2991 300.6392C841.3446 302.4614 841.3674 303.8736 841.3674 304.9213C841.3674 316.6593 841.3674 328.3972 841.3674 340.1352C838.5278 340.1352 835.6882 340.1352 832.8714 340.1124Z"></path><path fill="#fffcfa" stroke="none" fill-opacity="1" stroke-width="1" stroke-opacity="1" class="cls-1" id="tSvg67269cf567" title="Path 14" d="M898.6071 340.1124C898.6071 319.8026 898.6071 299.4927 898.6071 279.1828C913.4352 279.1828 928.2633 279.1828 943.0914 279.1828C943.0914 281.3922 943.0914 283.6017 943.0914 285.8111C931.0877 285.8111 919.084 285.8111 907.0803 285.8111C907.0803 292.4545 907.0803 299.0979 907.0803 305.7413C918.2184 305.7413 929.3566 305.7413 940.4947 305.7413C940.4947 307.9355 940.4947 310.1298 940.4947 312.324C929.3566 312.324 918.2184 312.324 907.0803 312.324C907.0803 319.385 907.0803 326.446 907.0803 333.507C919.1143 333.507 931.1484 333.507 943.1825 333.507C943.1825 335.7164 943.1825 337.9258 943.1825 340.1352C928.324 340.1352 913.4655 340.1352 898.6071 340.1124Z"></path><path fill="#fffcfa" stroke="none" fill-opacity="1" stroke-width="1" stroke-opacity="1" class="cls-1" id="tSvg110b505073e" title="Path 15" d="M951.4279 340.1124C951.4279 319.8026 951.4279 299.4927 951.4279 279.1828C959.8631 279.1828 968.2984 279.1828 976.7336 279.1828C981.6991 279.1828 985.9357 279.9573 989.4434 281.4834C992.9511 283.0094 995.6389 285.1733 997.4838 287.9521C999.3288 290.731 1000.2855 294.0109 1000.2855 297.7692C1000.2855 301.5275 999.306 304.7619 997.3472 307.5407C995.3883 310.3196 992.6095 312.4834 989.0106 314.0095C985.4118 315.5356 981.1524 316.31 976.2097 316.31C969.5132 316.31 962.8166 316.31 956.12 316.31C956.12 314.1006 956.12 311.8912 956.12 309.6818C962.9153 309.6818 969.7106 309.6818 976.5058 309.6818C979.7858 309.6818 982.5874 309.2035 984.8879 308.224C987.1884 307.2446 988.9195 305.878 990.1267 304.1013C991.3339 302.3247 991.9261 300.2064 991.9261 297.792C991.9261 295.3776 991.3339 293.1909 990.1039 291.4143C988.874 289.6377 987.1429 288.271 984.8424 287.3144C982.5418 286.3349 979.7402 285.8566 976.4147 285.8566C970.9102 285.8566 965.4056 285.8566 959.9011 285.8566C959.9011 303.9571 959.9011 322.0575 959.9011 340.158C957.0767 340.158 954.2523 340.158 951.4279 340.1124ZM991.6756 340.1124C986.0951 330.9787 980.5147 321.8449 974.9342 312.7112C978.1306 312.7112 981.3271 312.7112 984.5235 312.7112C990.2027 321.8449 995.8818 330.9787 1001.561 340.1124C998.2735 340.1124 994.9859 340.1124 991.6756 340.1124Z"></path><path fill="#fffcfa" stroke="none" fill-opacity="1" stroke-width="1" stroke-opacity="1" class="cls-1" id="tSvg9e9cb4ce4b" title="Path 16" d="M139.1168 171.2406C139.1168 186.9874 139.1168 202.7342 139.1168 218.481C139.1168 219.8477 138.0235 220.941 136.6568 220.941C125.5035 220.941 114.3501 220.941 103.1968 220.941C101.8301 220.941 100.7368 219.8477 100.7368 218.481C100.7368 202.7342 100.7368 186.9874 100.7368 171.2406C100.7368 170.7168 100.5774 170.2157 100.2585 169.7829C72.6902 132.0255 45.1219 94.2681 17.5537 56.5108C16.3693 54.8936 17.5309 52.6158 19.5353 52.6158C31.6225 52.6158 43.7097 52.6158 55.797 52.6158C56.5714 52.6158 57.3231 52.9803 57.7786 53.618C78.2631 81.7406 98.7476 109.8631 119.2321 137.9856C119.6724 137.9856 120.1128 137.9856 120.5532 137.9856C141.0377 109.8631 161.5222 81.7406 182.0067 53.618C182.4622 52.9803 183.2139 52.6158 183.9883 52.6158C196.0755 52.6158 208.1627 52.6158 220.2499 52.6158C222.2544 52.6158 223.416 54.8936 222.2316 56.5108C194.6633 94.2757 167.095 132.0407 139.5268 169.8057C139.2307 170.2157 139.0484 170.7395 139.1168 171.2406Z"></path><path fill="#fffcfa" stroke="none" fill-opacity="1" stroke-width="1" stroke-opacity="1" class="cls-1" id="tSvgb4dfd50ee4" title="Path 17" d="M415.703 176.4567C415.703 183.3582 414.1086 189.8042 410.9425 195.8175C407.7764 201.8307 402.606 207.0467 395.4539 211.4428C388.3017 215.8616 379.0541 219.3466 367.6654 221.8976C356.2767 224.4715 342.2914 225.747 325.7094 225.747C316.3479 225.747 307.2141 225.1092 298.3082 223.8337C289.4022 222.5354 280.929 220.7132 272.8886 218.2988C264.8481 215.8844 257.4455 212.9689 250.6578 209.5295C244.7812 206.5456 239.588 203.2885 235.078 199.758C233.9619 198.8697 233.8708 197.2069 234.8275 196.1819C238.153 192.5603 241.4785 188.9387 244.804 185.3171C245.6468 184.3832 247.0362 184.2693 248.0384 185.021C257.696 192.2186 268.857 197.7536 281.4984 201.6029C294.9143 205.6801 309.6513 207.7301 325.7094 207.7301C343.5213 207.7301 356.14 205.4979 363.5655 200.988C370.9681 196.5008 374.6808 190.3281 374.6808 182.4699C374.6808 176.3883 371.7653 171.2406 365.9571 167.0724C360.1261 162.9041 350.2407 158.8269 336.3009 154.7953C319.5367 149.9893 302.7725 145.1833 286.0083 140.3772C269.4264 135.5712 256.8988 129.4441 248.4256 121.9731C239.9524 114.5249 235.7158 105.0267 235.7158 93.4785C235.7158 87.5564 237.2647 81.8165 240.3396 76.2816C243.4146 70.7467 248.2434 65.8723 254.7577 61.6129C261.2721 57.3763 269.6086 54.0053 279.7673 51.5225C289.9261 49.0398 302.1348 47.787 316.4162 47.787C325.0488 47.787 333.6587 48.4248 342.223 49.7231C350.7873 50.9986 358.9872 52.8436 366.8454 55.258C374.7036 57.6724 382.0152 60.5879 388.8028 64.0273C394.6794 67.0112 399.8727 70.2683 404.3826 73.7988C405.4987 74.6872 405.5898 76.3499 404.6332 77.3977C401.3152 81.0193 397.9973 84.6409 394.6794 88.2625C393.8367 89.1964 392.4245 89.3103 391.4222 88.5586C381.8102 81.3609 371.1048 75.826 359.3061 71.9766C346.7785 67.8995 332.4743 65.8495 316.439 65.8495C303.2053 65.8495 293.2743 67.945 286.6689 72.1133C280.0634 76.2816 276.7379 81.4065 276.7379 87.5108C276.7379 90.8819 277.3529 93.7974 278.5829 96.2802C279.8129 98.7629 281.8856 101.0862 284.8011 103.25C287.7167 105.4139 291.5433 107.4183 296.3037 109.2633C301.0642 111.1083 306.9864 113.0671 314.0474 115.1626C330.7204 119.9687 347.3935 124.7747 364.0666 129.5807C380.1246 134.2273 392.7433 140.3317 401.9226 147.871C411.1019 155.4103 415.6802 164.9541 415.703 176.4567Z"></path><path fill="#fffcfa" stroke="none" fill-opacity="1" stroke-width="1" stroke-opacity="1" class="cls-1" id="tSvg14bb040ecb0" title="Path 18" d="M561.0001 52.6158C541.7608 52.6158 522.5215 52.6158 503.2822 52.6158C502.3255 52.6158 501.4372 53.1853 501.05 54.0736C476.6478 108.5496 452.2456 163.0256 427.8433 217.5016C427.1145 219.1188 428.2989 220.9637 430.0755 220.9637C440.9783 220.9637 451.8811 220.9637 462.7839 220.9637C463.7633 220.9637 464.6517 220.3715 465.0389 219.4832C470.4371 206.8493 475.8354 194.2155 481.2336 181.5816C481.6208 180.6705 482.5091 180.1011 483.4886 180.1011C515.9236 180.1011 548.3587 180.1011 580.7937 180.1011C581.7731 180.1011 582.6615 180.6933 583.0487 181.5816C588.4469 194.2155 593.8452 206.8493 599.2434 219.4832C599.6306 220.3943 600.519 220.9637 601.4984 220.9637C612.4012 220.9637 623.304 220.9637 634.2068 220.9637C635.9834 220.9637 637.1678 219.1188 636.439 217.5016C612.0367 163.0256 587.6345 108.5496 563.2323 54.0736C562.8451 53.1853 561.9568 52.6158 561.0001 52.6158ZM494.9001 162.0158C493.1234 162.0158 491.939 160.1936 492.6679 158.5536C505.3853 130.0439 518.1027 101.5341 530.8201 73.0244C531.7008 73.0244 532.5815 73.0244 533.4622 73.0244C546.1796 101.5341 558.897 130.0439 571.6144 158.5536C572.3433 160.1708 571.1589 162.0158 569.3822 162.0158C544.5548 162.0158 519.7275 162.0158 494.9001 162.0158Z"></path><path fill="#fffcfa" stroke="none" fill-opacity="1" stroke-width="1" stroke-opacity="1" class="cls-1" id="tSvg7b92aff2bc" title="Path 19" d="M754.4715 52.5931C767.7052 52.5931 779.5723 53.9142 790.0726 56.5563C800.573 59.1985 809.4335 63.0479 816.6767 68.1045C823.9199 73.1611 829.4548 79.3338 833.3497 86.6225C837.2219 93.9113 839.1808 102.2251 839.1808 111.5182C839.1808 124.3419 835.6503 135.1612 828.5893 143.9761C822.0977 152.0848 812.9867 158.4397 801.2564 163.018C799.7303 163.6102 799.1608 165.478 800.163 166.7763C813.0323 183.5025 825.9015 200.2287 838.7708 216.9549C840.0235 218.5721 838.8619 220.9182 836.8347 220.9182C824.3451 220.9182 811.8555 220.9182 799.3658 220.9182C798.6142 220.9182 797.8853 220.5538 797.4298 219.9615C784.7048 203.4479 771.9798 186.9343 759.2548 170.4207C739.5144 170.4207 719.7739 170.4207 700.0335 170.4207C698.6669 170.4207 697.5735 171.514 697.5735 172.8806C697.5735 188.0807 697.5735 203.2809 697.5735 218.481C697.5735 219.8477 696.4802 220.941 695.1136 220.941C683.9602 220.941 672.8069 220.941 661.6536 220.941C660.2869 220.941 659.1936 219.8477 659.1936 218.481C659.1936 164.005 659.1936 109.529 659.1936 55.053C659.1936 53.6864 660.2869 52.5931 661.6536 52.5931C692.5929 52.5931 723.5322 52.5931 754.4715 52.5931ZM697.5735 73.0927C697.5735 98.7097 697.5735 124.3267 697.5735 149.9438C697.5735 151.3104 698.6669 152.4037 700.0335 152.4037C718.1871 152.4037 736.3407 152.4037 754.4943 152.4037C768.4341 152.4037 779.185 149.0782 786.7927 142.4272C794.3776 135.7762 798.1814 125.4808 798.1814 111.5182C798.1814 97.5557 794.3776 87.2603 786.7927 80.6093C779.2078 73.9583 768.4341 70.6328 754.4943 70.6328C736.3407 70.6328 718.1871 70.6328 700.0335 70.6328C698.6669 70.6328 697.5735 71.7261 697.5735 73.0927Z"></path><path fill="#fffcfa" stroke="none" fill-opacity="1" stroke-width="1" stroke-opacity="1" class="cls-1" id="tSvg79039b1a4d" title="Path 20" d="M906.8525 220.941C895.6991 220.941 884.5458 220.941 873.3925 220.941C872.0258 220.941 870.9325 219.8477 870.9325 218.481C870.9325 164.005 870.9325 109.529 870.9325 55.053C870.9325 53.6864 872.0258 52.5931 873.3925 52.5931C884.5458 52.5931 895.6991 52.5931 906.8525 52.5931C908.2191 52.5931 909.3124 53.6864 909.3124 55.053C909.3124 109.529 909.3124 164.005 909.3124 218.481C909.3124 219.8477 908.2191 220.941 906.8525 220.941Z"></path><path fill="#fffcfa" stroke="none" fill-opacity="1" stroke-width="1" stroke-opacity="1" class="cls-1" id="tSvg2126202ef7" title="Path 21" d="M1067.4561 54.0508C1091.8659 108.5268 1116.2757 163.0028 1140.6855 217.4788C1141.4143 219.096 1140.2299 220.941 1138.4533 220.941C1127.5505 220.941 1116.6477 220.941 1105.7449 220.941C1104.7655 220.941 1103.8772 220.3488 1103.4899 219.4604C1098.0917 206.8266 1092.6934 194.1927 1087.2952 181.5588C1086.908 180.6477 1086.0197 180.0783 1085.0402 180.0783C1052.5976 180.0783 1020.155 180.0783 987.7123 180.0783C986.7329 180.0783 985.8446 180.6705 985.4574 181.5588C980.0591 194.1927 974.6609 206.8266 969.2626 219.4604C968.8754 220.3715 967.9871 220.941 967.0076 220.941C956.1049 220.941 945.2021 220.941 934.2993 220.941C932.5226 220.941 931.3382 219.096 932.0671 217.4788C956.4769 163.0028 980.8867 108.5268 1005.2965 54.0508C1005.6837 53.1625 1006.572 52.5931 1007.5287 52.5931C1026.7604 52.5931 1045.9921 52.5931 1065.2239 52.5931C1066.1805 52.5931 1067.0689 53.1625 1067.4561 54.0508ZM999.1238 162.0158C1023.9512 162.0158 1048.7786 162.0158 1073.606 162.0158C1075.3826 162.0158 1076.567 160.1936 1075.8382 158.5536C1063.1208 130.0439 1050.4034 101.5341 1037.686 73.0244C1036.8053 73.0244 1035.9245 73.0244 1035.0438 73.0244C1022.3264 101.5341 1009.609 130.0439 996.8916 158.5536C996.1627 160.1708 997.3472 162.0158 999.1238 162.0158Z"></path><path fill="#fffcfa" class="cls-1" x="222.83" y="7.24" width="21.59" height="7.93" rx=".54" ry=".54" id="tSvgd776554474" title="Rectangle 1" fill-opacity="1" stroke="none" stroke-opacity="1" d="M507.5643 17.0309C507.5643 16.7326 507.8061 16.4909 508.1043 16.4909H556.2008C556.499 16.4909 556.7408 16.7326 556.7408 17.0309V34.0133C556.7408 34.3116 556.499 34.5533 556.2008 34.5533H508.1043C507.8061 34.5534 507.5643 34.3116 507.5643 34.0133Z" style="transform-origin: 532.153px 25.5221px;"></path></svg> 