<?xml version="1.0" encoding="UTF-8"?> <svg xmlns="http://www.w3.org/2000/svg" id="_Слой_1" data-name="Слой 1" viewBox="0 0 1080 254.98"><defs><style> .cls-1 { fill: #fff; } </style></defs><rect class="cls-1" x="587.84" y="114.15" width="118.89" height="29.11"></rect><path class="cls-1" d="m859.84,96.59c-3.03-7.93-7.46-14.46-13.13-19.31-5.61-4.83-12.29-8.38-19.86-10.6-7.39-2.14-15.68-3.21-24.61-3.21-11.51,0-21.76,1.7-30.48,5.01-8.98,3.44-16.05,8.53-21.06,15.14-5.09,6.68-7.65,14.93-7.65,24.45,0,8.19,2.06,15.48,6.13,21.69,4.07,6.24,10.13,11.09,18.01,14.48,7.62,3.24,16.99,4.88,27.74,4.88,8.51,0,16.28-1.36,23.15-4.04,3.65-1.44,6.84-3.24,9.42-5.38-.21,1.77-.5,3.47-.91,5.04-.94,3.81-2.48,6.99-4.65,9.55-2.14,2.53-4.8,4.41-8.17,5.77-3.42,1.36-7.59,2.06-12.37,2.06-3.76,0-7.2-.37-10.23-1.12-2.79-.65-5.09-1.72-6.92-3.16-1.67-1.3-2.79-2.95-3.47-5.01l-.86-2.66h-35.75l.78,4.49c1.38,7.96,4.75,14.8,10.02,20.22,5.19,5.35,11.9,9.37,20.02,12,7.88,2.53,16.94,3.81,26.93,3.81,8.95,0,17.33-1.23,24.84-3.65,7.72-2.51,14.46-6.42,20.07-11.69,5.64-5.3,10.02-12.27,13.05-20.69,2.95-8.25,4.46-18.19,4.46-29.57s-1.54-20.69-4.51-28.5Zm-37.89,18.29c-1.7,2.35-4.12,4.2-7.39,5.58-3.39,1.44-7.78,2.19-12.97,2.19s-9.19-.63-12.53-1.85c-3.11-1.17-5.45-2.82-7.15-5.12-1.64-2.19-2.45-4.88-2.45-8.27,0-3.18.76-5.79,2.27-7.93,1.54-2.19,3.91-3.97,7.07-5.3,3.37-1.41,7.7-2.14,12.94-2.14,4.93,0,9.21.65,12.68,1.88,3.26,1.17,5.69,2.82,7.44,5.06,1.7,2.14,2.51,4.72,2.51,7.96s-.81,5.69-2.43,7.93Z"></path><path class="cls-1" d="m1000.83,100.35c-3.11-7.99-7.72-14.74-13.75-20.15-5.98-5.35-13.1-9.47-21.19-12.27-8.01-2.77-17.04-4.18-26.83-4.18s-18.79,1.38-26.85,4.1c-8.17,2.77-15.32,6.86-21.24,12.29-4.8,4.38-8.74,9.66-11.72,15.68-.73,1.44-1.38,2.9-1.98,4.41-3.13,7.8-4.7,16.86-4.7,26.91s1.57,19.23,4.7,26.98c2.09,5.22,4.85,9.97,8.3,14.2v.03c1.67,2.09,3.5,4.04,5.51,5.87,5.95,5.45,13.05,9.63,21.09,12.42,7.99,2.79,16.96,4.18,26.75,4.18s18.82-1.38,26.91-4.18c8.14-2.79,15.29-6.92,21.19-12.24,5.98-5.43,10.57-12.21,13.75-20.22,3.08-7.91,4.65-16.94,4.65-26.88s-1.54-19.1-4.57-26.96Zm-34.19,42.56c-1.38,4.18-3.39,7.67-5.95,10.36-2.51,2.69-5.48,4.57-9.03,5.77-3.71,1.28-7.93,1.9-12.6,1.9s-9.08-.63-12.84-1.9c-3.6-1.2-6.6-3.08-9.13-5.77-2.51-2.66-4.44-6.13-5.74-10.28-1.36-4.36-2.04-9.63-2.04-15.68s.7-11.43,2.11-15.68c1.36-4.12,3.31-7.57,5.82-10.18,2.53-2.66,5.53-4.57,9.11-5.82,3.71-1.33,7.99-1.96,12.71-1.96s8.92.63,12.68,1.96c3.55,1.23,6.6,3.18,9.06,5.79,2.48,2.61,4.46,6.11,5.85,10.31,1.44,4.31,2.19,9.58,2.19,15.58s-.76,11.27-2.19,15.61Z"></path><path class="cls-1" d="m195.16,139.54c-2.22-4.36-5.38-8.04-9.39-10.86-1.51-1.1-3.18-2.01-5.01-2.82,1.02-.57,2.01-1.25,2.95-1.98,3.55-2.71,6.29-6.24,8.19-10.41,1.85-4.1,2.82-8.64,2.82-13.47,0-6.99-1.67-13.13-4.96-18.27-3.29-5.19-8.38-9.21-15.14-11.93-6.42-2.61-14.95-3.91-25.37-3.91h-74.66v125.6h73.3c10.23,0,19.15-1.33,26.49-3.94,7.65-2.74,13.62-6.92,17.77-12.42,4.18-5.56,6.29-12.5,6.29-20.64,0-5.56-1.12-10.57-3.29-14.95Zm-83.48-46.37h29.93c5.11,0,9.26.97,12.32,2.84,1.59.97,3.68,2.79,3.68,7.54,0,2.22-.44,4.05-1.41,5.58-.86,1.46-2.27,2.61-4.25,3.47-2.19.99-5.4,1.46-9.5,1.46h-30.77v-20.9Zm45.56,67.54c-2.64,2.27-7.62,3.5-14.46,3.5h-31.11v-23.49h31.97c6.18,0,10.78,1.02,13.67,3.03,1.57,1.12,3.68,3.18,3.68,8.3,0,3.6-1.23,6.45-3.76,8.66Z"></path><path class="cls-1" d="m370.53,65.9l-42.75,95.15-.18.39h-82.28v-19.1h66.73v-28.6h-66.73v-17.82h75.05v-30.01h-112.47v125.6h146.63l10.02-23.62h55.19l10.18,23.62h40.61l-42.93-95.25h57.65v95.25h37.08v-95.25h41.75v-30.35h-193.56Zm5.66,73.38l13.67-31.58,2.3-5.82,2.48,6.11,13.75,31.29h-32.2Z"></path></svg> 