<?xml version="1.0" encoding="UTF-8"?> <svg xmlns="http://www.w3.org/2000/svg" viewBox="0 0 286.00 67.52" data-guides="{&quot;vertical&quot;:[],&quot;horizontal&quot;:[]}"><defs></defs><path fill="rgb(255, 255, 255)" class="cls-1" x="587.84" y="114.15" width="118.89" height="29.11" id="tSvg1421edefe44" title="Rectangle 1" fill-opacity="1" stroke="none" stroke-opacity="1" d="M155.6682 30.2273H187.1506V37.9357H155.6682Z" style="transform-origin: 171.409px 34.0815px;"></path><path fill="rgb(255, 255, 255)" stroke="none" fill-opacity="1" stroke-width="1" stroke-opacity="1" class="cls-1" id="tSvg100adeb7315" title="Path 1" d="M227.6946 25.5773C226.8923 23.4774 225.7192 21.7483 224.2178 20.464C222.7322 19.185 220.9633 18.2449 218.9588 17.6571C217.0019 17.0904 214.8067 16.8071 212.442 16.8071C209.3941 16.8071 206.6799 17.2572 204.3708 18.1337C201.9928 19.0446 200.1207 20.3925 198.794 22.1428C197.4462 23.9117 196.7683 26.0963 196.7683 28.6173C196.7683 30.786 197.3138 32.7164 198.3915 34.3609C199.4693 36.0132 201.074 37.2975 203.1606 38.1952C205.1784 39.0532 207.6596 39.4874 210.5063 39.4874C212.7597 39.4874 214.8173 39.1273 216.6365 38.4176C217.603 38.0363 218.4477 37.5597 219.1309 36.993C219.0753 37.4617 218.9985 37.9119 218.8899 38.3276C218.641 39.3365 218.2332 40.1786 217.6586 40.8565C217.0919 41.5264 216.3875 42.0243 215.4952 42.3844C214.5895 42.7445 213.4853 42.9299 212.2195 42.9299C211.2239 42.9299 210.313 42.8319 209.5106 42.6333C208.7718 42.4612 208.1628 42.1778 207.6782 41.7965C207.2359 41.4523 206.9394 41.0154 206.7593 40.4699C206.6834 40.2351 206.6075 40.0003 206.5316 39.7655C203.376 39.7655 200.2204 39.7655 197.0649 39.7655C197.1337 40.1618 197.2026 40.5581 197.2714 40.9545C197.6368 43.0623 198.5292 44.8735 199.9247 46.3088C201.2991 47.7255 203.0759 48.79 205.2261 49.4864C207.3127 50.1564 209.7119 50.4953 212.3572 50.4953C214.7272 50.4953 216.9463 50.1696 218.9349 49.5288C220.9792 48.8641 222.764 47.8287 224.2495 46.4332C225.743 45.0298 226.9029 43.1841 227.7052 40.9545C228.4864 38.7698 228.8862 36.1377 228.8862 33.1242C228.8862 30.1108 228.4785 27.6454 227.6946 25.5773ZM217.6612 30.4206C217.2111 31.0429 216.5703 31.5328 215.7043 31.8982C214.8067 32.2795 213.6442 32.4781 212.2699 32.4781C210.8955 32.4781 209.8363 32.3113 208.9519 31.9882C208.1283 31.6784 207.5087 31.2415 207.0585 30.6324C206.6242 30.0525 206.4098 29.3402 206.4098 28.4425C206.4098 27.6004 206.611 26.9093 207.0109 26.3426C207.4187 25.7627 208.0462 25.2913 208.883 24.9392C209.7754 24.5658 210.922 24.3725 212.3096 24.3725C213.6151 24.3725 214.7484 24.5446 215.6673 24.8703C216.5305 25.1801 217.174 25.6171 217.6374 26.2102C218.0876 26.7769 218.3021 27.4601 218.3021 28.318C218.3021 29.176 218.0876 29.8248 217.6586 30.4179C217.6595 30.4188 217.6604 30.4197 217.6612 30.4206"></path><path fill="rgb(255, 255, 255)" stroke="none" fill-opacity="1" stroke-width="1" stroke-opacity="1" class="cls-1" id="tSvg4f5f1cc140" title="Path 2" d="M265.0292 26.573C264.2057 24.4572 262.9849 22.6698 261.3882 21.2372C259.8047 19.8205 257.9193 18.7295 255.777 17.9881C253.6559 17.2546 251.2648 16.8812 248.6723 16.8812C246.0799 16.8812 243.6967 17.2466 241.5624 17.9669C239.3989 18.7004 237.5056 19.7834 235.938 21.2213C234.6669 22.3812 233.6236 23.7793 232.8345 25.3734C232.6412 25.7548 232.469 26.1414 232.3102 26.5412C231.4813 28.6067 231.0656 31.0058 231.0656 33.6671C231.0656 36.3283 231.4813 38.7592 232.3102 40.8115C232.8636 42.1937 233.5944 43.4515 234.508 44.5717C234.508 44.5743 234.508 44.577 234.508 44.5796C234.9502 45.133 235.4348 45.6494 235.9671 46.134C237.5427 47.5772 239.4228 48.6841 241.5518 49.4229C243.6676 50.1617 246.0428 50.5297 248.6353 50.5297C251.2277 50.5297 253.6189 50.1643 255.7611 49.4229C257.9166 48.6841 259.81 47.5904 261.3723 46.1817C262.9558 44.7438 264.1713 42.9484 265.0133 40.8273C265.8289 38.7328 266.2447 36.3416 266.2447 33.7094C266.2447 31.0773 265.8369 28.6517 265.0292 26.573ZM255.9756 37.843C255.6102 38.9499 255.0779 39.8741 254.4 40.5864C253.7354 41.2987 252.9489 41.7965 252.0089 42.1143C251.0264 42.4532 249.909 42.6174 248.6723 42.6174C247.4357 42.6174 246.2679 42.4506 245.2723 42.1143C244.319 41.7965 243.5246 41.2987 242.8546 40.5864C242.19 39.882 241.6789 38.9631 241.3346 37.8642C240.9745 36.7097 240.7944 35.3141 240.7944 33.7121C240.7944 32.11 240.9798 30.6854 241.3532 29.56C241.7133 28.469 242.2297 27.5554 242.8943 26.8643C243.5643 26.1599 244.3587 25.6541 245.3067 25.3231C246.2891 24.9709 247.4225 24.8041 248.6723 24.8041C249.9222 24.8041 251.0344 24.9709 252.03 25.3231C252.9701 25.6488 253.7777 26.1652 254.4292 26.8563C255.0859 27.5475 255.6102 28.4743 255.9783 29.5865C256.3596 30.7278 256.5582 32.1233 256.5582 33.7121C256.5582 35.3009 256.3569 36.6964 255.9756 37.843Z"></path><path fill="rgb(255, 255, 255)" stroke="none" fill-opacity="1" stroke-width="1" stroke-opacity="1" class="cls-1" id="tSvg9966444555" title="Path 3" d="M51.6853 36.9506C51.0974 35.7961 50.2606 34.8216 49.1988 34.0749C48.7989 33.7836 48.3567 33.5426 47.8721 33.3281C48.1422 33.1772 48.4044 32.9971 48.6533 32.8038C49.5933 32.0862 50.3189 31.1514 50.822 30.0472C51.3119 28.9615 51.5688 27.7593 51.5688 26.4803C51.5688 24.6293 51.1266 23.0034 50.2553 21.6424C49.3841 20.268 48.0363 19.2035 46.2462 18.4833C44.5462 17.7921 42.2874 17.4479 39.5282 17.4479C32.9381 17.4479 26.348 17.4479 19.758 17.4479C19.758 28.5343 19.758 39.6207 19.758 50.7072C26.228 50.7072 32.698 50.7072 39.168 50.7072C41.877 50.7072 44.239 50.355 46.1827 49.6638C48.2084 48.9383 49.7893 47.8314 50.8882 46.375C51.9951 44.9027 52.5538 43.0649 52.5538 40.9094C52.5538 39.4371 52.2573 38.1105 51.6853 36.9506ZM29.5795 24.6717C32.2214 24.6717 34.8632 24.6717 37.5051 24.6717C38.8582 24.6717 39.9572 24.9286 40.7675 25.4237C41.1885 25.6806 41.7419 26.1625 41.7419 27.4204C41.7419 28.0082 41.6254 28.4928 41.3686 28.898C41.1408 29.2846 40.7675 29.5891 40.2431 29.8168C39.6632 30.079 38.8132 30.2034 37.7275 30.2034C35.0115 30.2034 32.2955 30.2034 29.5795 30.2034C29.5795 28.3587 29.5795 26.5139 29.5795 24.6717ZM41.644 42.5565C40.9449 43.1576 39.6262 43.4833 37.8149 43.4833C35.0689 43.4833 32.3229 43.4833 29.5769 43.4833C29.5769 41.4099 29.5769 39.3365 29.5769 37.2631C32.3988 37.2631 35.2207 37.2631 38.0426 37.2631C39.6791 37.2631 40.8972 37.5332 41.6625 38.0655C42.0782 38.362 42.637 38.9075 42.637 40.2633C42.637 41.2166 42.3113 41.9713 41.644 42.5565Z"></path><path fill="rgb(255, 255, 255)" stroke="none" fill-opacity="1" stroke-width="1" stroke-opacity="1" class="cls-1" id="tSvg507d16a548" title="Path 4" d="M98.1238 17.4505C94.3504 25.8492 90.5769 34.2479 86.8035 42.6465C86.7876 42.681 86.7717 42.7154 86.7558 42.7498C79.4931 42.7498 72.2305 42.7498 64.9678 42.7498C64.9678 41.0639 64.9678 39.378 64.9678 37.6921C70.8579 37.6921 76.748 37.6921 82.6381 37.6921C82.6381 35.1676 82.6381 32.6432 82.6381 30.1187C76.748 30.1187 70.8579 30.1187 64.9678 30.1187C64.9678 28.5458 64.9678 26.9728 64.9678 25.3999C71.5923 25.3999 78.2168 25.3999 84.8413 25.3999C84.8413 22.751 84.8413 20.1021 84.8413 17.4532C74.9138 17.4532 64.9863 17.4532 55.0589 17.4532C55.0589 28.5396 55.0589 39.626 55.0589 50.7124C68.0016 50.7124 80.9443 50.7124 93.887 50.7124C94.7714 48.6276 95.6558 46.5427 96.5403 44.4578C101.4118 44.4578 106.2833 44.4578 111.1548 44.4578C112.0533 46.5427 112.9519 48.6276 113.8505 50.7124C117.435 50.7124 121.0196 50.7124 124.6041 50.7124C120.8148 42.3049 117.0255 33.8974 113.2361 25.4899C118.3248 25.4899 123.4134 25.4899 128.502 25.4899C128.502 33.8974 128.502 42.3049 128.502 50.7124C131.775 50.7124 135.048 50.7124 138.3209 50.7124C138.3209 42.3049 138.3209 33.8974 138.3209 25.4899C142.0061 25.4899 145.6913 25.4899 149.3765 25.4899C149.3765 22.811 149.3765 20.1321 149.3765 17.4532C132.2914 17.4532 115.2063 17.4532 98.1238 17.4505ZM99.6226 36.8818C100.8292 34.0943 102.0358 31.3068 103.2425 28.5193C103.4455 28.0056 103.6485 27.4919 103.8515 26.9781C104.0704 27.5175 104.2893 28.0568 104.5082 28.5961C105.7219 31.358 106.9356 34.1199 108.1493 36.8818C105.307 36.8818 102.4648 36.8818 99.6226 36.8818Z"></path></svg> 