<?xml version="1.0" encoding="UTF-8"?> <svg xmlns="http://www.w3.org/2000/svg" viewBox="0 0 262.00 74.55" data-guides="{&quot;vertical&quot;:[],&quot;horizontal&quot;:[]}"><defs></defs><path fill="#000000" stroke="none" fill-opacity="1" stroke-width="1" stroke-opacity="1" class="cls-1" id="tSvg11360c3c9a8" title="Path 1" d="M20.0015 17.0026C22.3869 17.0026 24.5111 17.5509 26.3769 18.6475C28.2428 19.744 29.8101 21.2252 31.0788 23.091C32.3476 24.9569 33.3207 27.15 33.9924 29.6703C34.6641 32.1906 35.0028 34.8918 35.0028 37.7767C35.0028 40.6615 34.667 43.3656 33.9924 45.883C33.3178 48.4033 32.3476 50.5964 31.0788 52.4623C29.8101 54.3281 28.2428 55.8093 26.3769 56.9058C24.5111 58.0024 22.3869 58.5507 20.0015 58.5507C17.6161 58.5507 15.4919 58.0024 13.626 56.9058C11.7602 55.8093 10.1929 54.3281 8.9241 52.4623C7.6553 50.5964 6.6822 48.4033 6.0105 45.883C5.3359 43.3627 5.0001 40.6615 5.0001 37.7767C5.0001 34.8918 5.3359 32.1906 6.0105 29.6703C6.6822 27.15 7.6553 24.9597 8.9241 23.091C10.1929 21.2252 11.7602 19.744 13.626 18.6475C15.4919 17.5509 17.6161 17.0026 20.0015 17.0026ZM20.0015 17.5796C17.6936 17.5796 15.7416 18.1078 14.1456 19.167C12.5496 20.2262 11.2492 21.6673 10.2503 23.4958C9.2485 25.3243 8.528 27.4686 8.0859 29.9286C7.6439 32.3915 7.4228 35.0066 7.4228 37.7767C7.4228 40.5467 7.6439 43.1618 8.0859 45.6247C8.528 48.0876 9.2485 50.2319 10.2503 52.0575C11.2492 53.886 12.5496 55.3271 14.1456 56.3863C15.7416 57.4455 17.6936 57.9737 20.0015 57.9737C22.3094 57.9737 24.2613 57.4455 25.8573 56.3863C27.4534 55.3299 28.7508 53.886 29.7527 52.0575C30.7516 50.2319 31.475 48.0847 31.917 45.6247C32.3591 43.1646 32.5801 40.5467 32.5801 37.7767C32.5801 35.0066 32.3591 32.3915 31.917 29.9286C31.475 27.4686 30.7545 25.3214 29.7527 23.4958C28.7508 21.6701 27.4534 20.2262 25.8573 19.167C24.2613 18.1107 22.3094 17.5796 20.0015 17.5796Z" style=""></path><path fill="#000000" stroke="none" fill-opacity="1" stroke-width="1" stroke-opacity="1" class="cls-1" id="tSvg131ad8c1dfe" title="Path 2" d="M67.5583 41.1433C67.5583 43.566 67.2799 45.8079 66.723 47.866C66.1661 49.9242 65.3394 51.7039 64.2428 53.2023C63.1463 54.7036 61.7799 55.8863 60.1466 56.7503C58.5104 57.6172 56.636 58.0478 54.5204 58.0478C52.135 58.0478 50.0108 57.4995 48.1449 56.403C46.2791 55.3064 44.7118 53.8253 43.443 51.9594C42.1742 50.0936 41.2011 47.9005 40.5294 45.3802C39.8549 42.8598 39.519 40.1587 39.519 37.2738C39.519 34.3889 39.8549 31.6877 40.5294 29.1674C41.2011 26.6471 42.1742 24.4569 43.443 22.5882C44.7118 20.7223 46.2791 19.2411 48.1449 18.1446C50.0108 17.0481 52.135 16.4998 54.5204 16.4998C57.3278 16.4998 59.6931 17.2318 61.6163 18.6929C63.5396 20.154 65.0007 22.1346 66.0025 24.6349C66.2723 24.4425 66.502 24.1727 66.6943 23.8282C66.8866 23.4809 66.9842 23.079 66.9842 22.6169C66.9842 20.7702 66.9842 18.9235 66.9842 17.0768C67.1765 17.0768 67.3689 17.0768 67.5612 17.0768C67.5612 22.5202 67.5612 27.9637 67.5612 33.4072C67.3689 33.4072 67.1765 33.4072 66.9842 33.4072C66.9842 31.0993 66.7144 28.9464 66.1776 26.9456C65.6379 24.9449 64.8399 23.214 63.7836 21.7529C62.7243 20.2918 61.4269 19.1464 59.8883 18.3197C58.3497 17.493 56.5613 17.0796 54.5232 17.0796C52.2153 17.0796 50.2634 17.6078 48.6674 18.667C47.0714 19.7263 45.771 21.1673 44.7721 22.9958C43.7703 24.8243 43.0497 26.9686 42.6077 29.4286C42.1656 31.8916 41.9446 34.5066 41.9446 37.2767C41.9446 40.0467 42.1656 42.6618 42.6077 45.1247C43.0497 47.5876 43.7703 49.7319 44.7721 51.5575C45.771 53.3861 47.0714 54.8271 48.6674 55.8863C50.2634 56.9455 52.2153 57.4737 54.5232 57.4737C56.5613 57.4737 58.3497 57.0603 59.8883 56.2336C61.4269 55.4069 62.7243 54.2616 63.7836 52.8005C64.8399 51.3394 65.6379 49.6084 66.1776 47.6077C66.7172 45.6069 66.9842 43.454 66.9842 41.1461C67.1765 41.1461 67.3689 41.1461 67.5612 41.1461C67.5602 41.1452 67.5593 41.1442 67.5583 41.1433"></path><path fill="#000000" stroke="none" fill-opacity="1" stroke-width="1" stroke-opacity="1" class="cls-1" id="tSvg6f1d5248a7" title="Path 3" d="M72.5214 57.4737C72.5214 57.2814 72.5214 57.089 72.5214 56.8967C74.4447 56.8967 76.368 56.8967 78.2912 56.8967C78.2912 43.8167 78.2912 30.7366 78.2912 17.6566C76.368 17.6566 74.4447 17.6566 72.5214 17.6566C72.5214 17.4643 72.5214 17.272 72.5214 17.0796C80.7924 17.0796 89.0633 17.0796 97.3343 17.0796C97.3343 22.5231 97.3343 27.9666 97.3343 33.4101C97.142 33.4101 96.9496 33.4101 96.7573 33.4101C96.7573 31.4868 96.7573 29.5636 96.7573 27.6403C96.7573 25.1401 96.5937 23.2168 96.2664 21.8705C95.9392 20.5243 95.5259 19.5339 95.0264 18.8995C94.5269 18.2652 93.9672 17.9006 93.3529 17.803C92.7357 17.7083 92.1415 17.6595 91.5645 17.6595C87.9103 17.6595 84.2562 17.6595 80.602 17.6595C80.602 24.1029 80.602 30.5462 80.602 36.9896C84.2562 36.9896 87.9103 36.9896 91.5645 36.9896C91.5645 37.1819 91.5645 37.3743 91.5645 37.5666C87.9103 37.5666 84.2562 37.5666 80.602 37.5666C80.602 44.01 80.602 50.4533 80.602 56.8967C84.2562 56.8967 87.9103 56.8967 91.5645 56.8967C92.1415 56.8967 92.7386 56.8479 93.3529 56.7532C93.9672 56.6585 94.5269 56.291 95.0264 55.6566C95.5259 55.0223 95.9392 54.0319 96.2664 52.6857C96.5937 51.3394 96.7573 49.4161 96.7573 46.9159C96.7573 44.9926 96.7573 43.0694 96.7573 41.1461C96.9496 41.1461 97.142 41.1461 97.3343 41.1461C97.3343 46.5896 97.3343 52.0331 97.3343 57.4766C89.0633 57.4766 80.7924 57.4766 72.5214 57.4737Z"></path><path fill="#000000" stroke="none" fill-opacity="1" stroke-width="1" stroke-opacity="1" class="cls-1" id="tSvg49a0afa1cf" title="Path 4" d="M123.7001 57.4737C123.7001 57.2814 123.7001 57.089 123.7001 56.8967C125.6233 56.8967 127.5466 56.8967 129.4698 56.8967C128.3542 53.3191 127.2385 49.7414 126.1228 46.1638C120.776 46.1638 115.4291 46.1638 110.0823 46.1638C108.9666 49.7414 107.8509 53.3191 106.7353 56.8967C108.6585 56.8967 110.5818 56.8967 112.505 56.8967C112.505 57.089 112.505 57.2814 112.505 57.4737C108.4471 57.4737 104.3891 57.4737 100.3311 57.4737C100.3311 57.2814 100.3311 57.089 100.3311 56.8967C102.2544 56.8967 104.1776 56.8967 106.1009 56.8967C110.2938 43.433 114.4866 29.9693 118.6795 16.5055C118.891 16.5055 119.1024 16.5055 119.3139 16.5055C123.5068 29.9693 127.6997 43.433 131.8926 56.8967C133.8158 56.8967 135.7391 56.8967 137.6623 56.8967C137.6623 57.089 137.6623 57.2814 137.6623 57.4737C133.0073 57.4737 128.3522 57.4737 123.7001 57.4737ZM118.1025 20.3147C115.4865 28.7388 112.8705 37.1628 110.2545 45.5868C115.4865 45.5868 120.7186 45.5868 125.9506 45.5868C123.3346 37.1628 120.7186 28.7388 118.1025 20.3147Z"></path><path fill="#000000" stroke="none" fill-opacity="1" stroke-width="1" stroke-opacity="1" class="cls-1" id="tSvg146b5ef7cfa" title="Path 5" d="M165.5925 57.4737C159.1874 44.3946 152.7823 31.3155 146.3772 18.2365C146.3772 31.1232 146.3772 44.01 146.3772 56.8967C148.3005 56.8967 150.2237 56.8967 152.147 56.8967C152.147 57.089 152.147 57.2814 152.147 57.4737C148.1082 57.4737 144.0693 57.4737 140.0305 57.4737C140.0305 57.2814 140.0305 57.089 140.0305 56.8967C141.9538 56.8967 143.877 56.8967 145.8003 56.8967C145.8003 43.8167 145.8003 30.7366 145.8003 17.6566C143.877 17.6566 141.9538 17.6566 140.0305 17.6566C140.0305 17.4643 140.0305 17.272 140.0305 17.0796C142.8197 17.0796 145.6089 17.0796 148.3981 17.0796C154.1296 28.8124 159.8611 40.5452 165.5925 52.278C165.5925 40.7376 165.5925 29.1971 165.5925 17.6566C163.6693 17.6566 161.746 17.6566 159.8228 17.6566C159.8228 17.4643 159.8228 17.272 159.8228 17.0796C163.8616 17.0796 167.9004 17.0796 171.9393 17.0796C171.9393 17.272 171.9393 17.4643 171.9393 17.6566C170.016 17.6566 168.0928 17.6566 166.1695 17.6566C166.1695 30.928 166.1695 44.1994 166.1695 57.4708C165.9772 57.4708 165.7849 57.4708 165.5925 57.4737Z"></path><path fill="#000000" stroke="none" fill-opacity="1" stroke-width="1" stroke-opacity="1" class="cls-1" id="tSvg16e5ad86db2" title="Path 6" d="M174.5342 57.4737C174.5342 57.2814 174.5342 57.089 174.5342 56.8967C176.4575 56.8967 178.3807 56.8967 180.304 56.8967C180.304 43.8167 180.304 30.7366 180.304 17.6566C178.3807 17.6566 176.4575 17.6566 174.5342 17.6566C174.5342 17.4643 174.5342 17.272 174.5342 17.0796C179.15 17.0796 183.7659 17.0796 188.3817 17.0796C188.3817 17.272 188.3817 17.4643 188.3817 17.6566C186.4584 17.6566 184.5352 17.6566 182.6119 17.6566C182.6119 30.7357 182.6119 43.8148 182.6119 56.8938C184.5352 56.8938 186.4584 56.8938 188.3817 56.8938C188.3817 57.0862 188.3817 57.2785 188.3817 57.4708C183.7659 57.4708 179.15 57.4708 174.5342 57.4737Z"></path><path fill="#000000" stroke="none" fill-opacity="1" stroke-width="1" stroke-opacity="1" class="cls-1" id="tSvg2272459fc3" title="Path 7" d="M191.6139 57.4737C191.6139 57.2814 191.6139 57.089 191.6139 56.8967C193.5371 56.8967 195.4604 56.8967 197.3836 56.8967C197.3836 43.8167 197.3836 30.7366 197.3836 17.6566C195.4604 17.6566 193.5371 17.6566 191.6139 17.6566C191.6139 17.4643 191.6139 17.272 191.6139 17.0796C196.2297 17.0796 200.8455 17.0796 205.4613 17.0796C207.8467 17.0796 210.0283 17.5906 212.0118 18.6096C213.9925 19.6287 215.6947 21.0438 217.1185 22.8494C218.5423 24.6578 219.6474 26.7935 220.4368 29.2535C221.2262 31.7165 221.6195 34.3889 221.6195 37.2738C221.6195 40.1587 221.2234 42.834 220.4368 45.294C219.6474 47.757 218.5423 49.8926 217.1185 51.6982C215.6947 53.5066 213.9925 54.9218 212.0118 55.938C210.0312 56.957 207.8467 57.4679 205.4613 57.4679C200.8455 57.4679 196.2297 57.4679 191.6139 57.4737ZM205.4613 56.8967C207.7692 56.8967 209.7786 56.3972 211.4923 55.3954C213.2031 54.3965 214.6384 53.0215 215.7923 51.2705C216.9463 49.5195 217.8017 47.4441 218.3614 45.0386C218.9183 42.6359 219.1968 40.0467 219.1968 37.2767C219.1968 34.5066 218.9183 31.9203 218.3614 29.5148C217.8046 27.1121 216.9463 25.0339 215.7923 23.2828C214.6384 21.5318 213.206 20.1568 211.4923 19.1579C209.7814 18.159 207.7692 17.6566 205.4613 17.6566C203.538 17.6566 201.6148 17.6566 199.6915 17.6566C199.6915 30.7357 199.6915 43.8148 199.6915 56.8938C201.6148 56.8938 203.538 56.8938 205.4613 56.8967Z"></path><path fill="#000000" stroke="none" fill-opacity="1" stroke-width="1" stroke-opacity="1" class="cls-1" id="tSvg10dfc82d79c" title="Path 8" d="M243.2575 57.4737C243.2575 57.2814 243.2575 57.089 243.2575 56.8967C245.1808 56.8967 247.104 56.8967 249.0273 56.8967C247.9116 53.3191 246.7959 49.7414 245.6802 46.1638C240.3334 46.1638 234.9866 46.1638 229.6397 46.1638C228.5241 49.7414 227.4084 53.3191 226.2927 56.8967C228.216 56.8967 230.1392 56.8967 232.0625 56.8967C232.0625 57.089 232.0625 57.2814 232.0625 57.4737C228.0045 57.4737 223.9465 57.4737 219.8886 57.4737C219.8886 57.2814 219.8886 57.089 219.8886 56.8967C221.8118 56.8967 223.7351 56.8967 225.6583 56.8967C229.8512 43.433 234.0441 29.9693 238.237 16.5055C238.4484 16.5055 238.6599 16.5055 238.8714 16.5055C243.0642 29.9693 247.2571 43.433 251.45 56.8967C253.3733 56.8967 255.2965 56.8967 257.2198 56.8967C257.2198 57.089 257.2198 57.2814 257.2198 57.4737C252.5647 57.4737 247.9097 57.4737 243.2575 57.4737ZM237.66 20.3147C235.044 28.7388 232.428 37.1628 229.812 45.5868C235.044 45.5868 240.276 45.5868 245.508 45.5868C242.892 37.1628 240.276 28.7388 237.66 20.3147Z"></path></svg> 